<?xml version="1.0" encoding="UTF-8" standalone="no"?>
<svg
   xmlns:dc="http://purl.org/dc/elements/1.1/"
   xmlns:cc="http://creativecommons.org/ns#"
   xmlns:rdf="http://www.w3.org/1999/02/22-rdf-syntax-ns#"
   xmlns:svg="http://www.w3.org/2000/svg"
   xmlns="http://www.w3.org/2000/svg"
   xmlns:sodipodi="http://sodipodi.sourceforge.net/DTD/sodipodi-0.dtd"
   xmlns:inkscape="http://www.inkscape.org/namespaces/inkscape"
   version="1.0"
   width="800"
   height="600"
   viewBox="0 0 600.00002 450"
   preserveAspectRatio="xMidYMid meet"
   id="svg971"
   sodipodi:docname="crusoe.svg"
   inkscape:version="0.92.3 (2405546, 2018-03-11)">
  <defs
     id="defs975" />
  <sodipodi:namedview
     pagecolor="#ffffff"
     bordercolor="#666666"
     borderopacity="1"
     objecttolerance="10"
     gridtolerance="10"
     guidetolerance="10"
     inkscape:pageopacity="0"
     inkscape:pageshadow="2"
     inkscape:window-width="3840"
     inkscape:window-height="2160"
     id="namedview973"
     showgrid="false"
     inkscape:pagecheckerboard="true"
     units="px"
     inkscape:zoom="1.116041"
     inkscape:cx="897.58581"
     inkscape:cy="496.66667"
     inkscape:window-x="0"
     inkscape:window-y="0"
     inkscape:window-maximized="1"
     inkscape:current-layer="svg971" />
  <metadata
     id="metadata915">
Created by potrace 1.15, written by Peter Selinger 2001-2017
<rdf:RDF>
  <cc:Work
     rdf:about="">
    <dc:format>image/svg+xml</dc:format>
    <dc:type
       rdf:resource="http://purl.org/dc/dcmitype/StillImage" />
    <dc:title></dc:title>
  </cc:Work>
</rdf:RDF>
</metadata>
  <g
     transform="matrix(0.02596738,0,0,-0.02596738,34.854402,321.76593)"
     id="g969"
     style="fill:#000000;stroke:none">
    <path
       d="m 18695,7005 c -538,-243 -992,-449 -1007,-458 -18,-10 -28,-24 -28,-39 0,-27 203,-515 222,-534 11,-11 171,27 922,221 502,129 913,240 917,247 5,7 9,231 9,499 0,500 -1,511 -39,508 -9,-1 -457,-200 -996,-444 z"
       id="path917"
       inkscape:connector-curvature="0" />
    <path
       d="m 1987,6512 c -26,-26 -47,-53 -47,-60 0,-7 -34,-29 -75,-49 -74,-37 -76,-37 -103,-20 -62,41 -194,98 -273,118 -58,14 -131,22 -234,26 -238,9 -417,-23 -580,-102 C 407,6295 277,6082 196,5640 125,5251 93,4678 104,3990 c 8,-553 29,-857 81,-1175 60,-369 136,-556 290,-710 128,-129 303,-207 528,-235 141,-18 389,-8 492,19 83,22 205,75 257,112 l 30,22 79,-39 c 43,-21 79,-43 79,-49 0,-6 22,-32 48,-58 l 48,-47 h 360 360 l 52,53 52,53 v 825 825 l -48,47 -48,47 h -410 -411 l -7,-118 c -16,-269 -76,-401 -214,-469 -50,-25 -68,-28 -152,-28 -104,0 -159,13 -210,47 -113,77 -132,169 -151,709 -20,586 8,1217 60,1351 19,50 80,106 139,129 76,29 215,32 289,6 149,-52 222,-199 239,-480 l 7,-117 h 411 412 l 47,48 47,48 v 825 825 l -53,52 -53,52 h -360 -360 z"
       id="path919"
       inkscape:connector-curvature="0" />
    <path
       d="m 18305,5693 c -521,-32 -929,-238 -1160,-587 -268,-406 -340,-859 -264,-1656 39,-405 199,-751 475,-1023 254,-250 626,-414 1099,-483 174,-26 641,-26 775,-1 173,33 361,107 500,199 94,62 234,200 296,293 182,274 279,613 291,1015 5,157 3,187 -9,198 -13,10 -130,-5 -623,-82 -372,-57 -610,-98 -615,-106 -4,-6 -10,-71 -14,-143 -13,-235 -45,-406 -99,-529 -51,-113 -119,-162 -228,-161 -203,1 -405,221 -517,563 -37,112 -72,268 -72,326 0,45 28,95 70,125 17,13 349,86 1055,234 567,119 1034,221 1040,226 21,21 -6,243 -50,404 -117,432 -387,774 -760,964 -329,169 -764,250 -1190,224 z m 350,-702 c 63,-28 121,-103 191,-246 62,-127 117,-294 129,-393 8,-62 -25,-128 -75,-153 -47,-23 -616,-82 -662,-68 -43,12 -86,56 -98,99 -17,64 21,304 71,448 57,162 123,253 221,301 74,37 158,42 223,12 z"
       id="path921"
       inkscape:connector-curvature="0" />
    <path
       d="m 14745,5653 c -678,-83 -1180,-396 -1449,-903 -91,-173 -165,-396 -202,-610 -22,-127 -30,-531 -15,-682 50,-480 254,-907 562,-1175 270,-234 629,-390 1034,-448 268,-39 621,26 955,174 560,249 899,711 997,1358 22,144 25,611 5,763 -43,332 -114,571 -237,796 -229,419 -669,678 -1229,724 -121,9 -355,11 -421,3 z m 373,-675 c 120,-74 196,-354 223,-828 13,-230 7,-815 -11,-1000 -15,-160 -55,-366 -91,-465 -30,-82 -86,-162 -130,-185 -10,-6 -89,-12 -174,-14 -146,-3 -158,-2 -188,18 -67,45 -119,159 -161,351 -51,236 -76,725 -58,1143 20,437 62,669 159,853 66,128 102,147 271,147 110,0 131,-2 160,-20 z"
       id="path923"
       inkscape:connector-curvature="0" />
    <path
       d="m 4880,5509 c -159,-80 -312,-287 -426,-579 l -33,-85 -1,280 c 0,309 -2,318 -60,347 -32,16 -79,18 -543,18 -541,0 -561,-2 -586,-48 -7,-14 -11,-161 -11,-449 0,-473 -1,-462 63,-481 17,-5 58,-15 90,-22 33,-6 70,-22 87,-37 63,-52 60,-14 60,-798 0,-634 -2,-721 -16,-750 -21,-45 -53,-64 -127,-76 -72,-12 -104,-30 -118,-66 -6,-16 -9,-183 -7,-435 l 3,-410 28,-24 28,-24 h 699 699 l 28,24 28,24 3,421 3,420 -28,31 c -22,24 -41,33 -89,41 -70,12 -129,42 -158,82 -21,28 -21,33 -18,620 4,637 7,677 58,779 92,183 248,78 434,-293 36,-70 44,-80 63,-76 12,3 76,15 142,27 376,67 803,154 823,166 42,27 46,52 28,178 -62,425 -232,811 -444,1008 -161,149 -332,218 -540,218 -91,0 -104,-3 -162,-31 z"
       id="path925"
       inkscape:connector-curvature="0" />
    <path
       d="m 6155,5468 c -45,-26 -44,-23 -45,-470 v -427 l 24,-28 c 24,-27 27,-28 150,-33 121,-5 127,-6 153,-33 l 28,-27 6,-943 c 6,-1007 3,-958 55,-1137 18,-63 71,-173 113,-234 40,-58 146,-154 214,-195 130,-77 326,-121 537,-121 302,1 497,64 695,224 68,56 108,61 156,18 26,-23 32,-37 38,-90 5,-45 14,-69 29,-85 l 23,-22 557,-3 c 407,-2 564,1 585,9 58,24 58,27 55,515 l -3,446 -28,24 c -26,22 -36,24 -140,24 -134,0 -175,15 -194,70 -9,26 -12,338 -12,1258 l -1,1223 -26,24 -27,25 h -599 -600 l -29,-29 -29,-29 v -422 c 0,-270 4,-428 10,-441 21,-37 63,-49 180,-49 125,0 160,-11 179,-59 10,-22 12,-159 8,-583 -4,-508 -6,-561 -25,-648 -36,-171 -79,-258 -167,-338 -72,-66 -132,-87 -250,-87 -78,0 -97,4 -147,28 -101,49 -168,150 -204,307 -16,68 -18,174 -21,1187 l -4,1111 -26,26 -26,26 h -586 c -422,-1 -592,-4 -606,-12 z"
       id="path927"
       inkscape:connector-curvature="0" />
    <path
       d="m 10570,5454 c -282,-32 -424,-74 -571,-169 -215,-139 -331,-360 -360,-690 -23,-265 41,-454 215,-633 155,-160 357,-277 665,-383 63,-22 252,-77 420,-124 168,-46 346,-100 394,-119 191,-75 312,-175 343,-283 43,-149 -37,-256 -226,-300 -103,-24 -359,-25 -447,-1 -224,62 -332,208 -333,451 v 77 h -426 c -272,0 -432,-4 -445,-10 -49,-27 -49,-22 -49,-724 0,-487 3,-662 12,-681 24,-54 35,-55 448,-55 413,0 424,1 448,55 7,14 12,40 12,56 0,42 48,89 90,89 19,0 63,-20 121,-55 151,-90 332,-149 546,-176 127,-16 446,-16 548,0 564,88 843,415 872,1026 5,102 2,148 -11,215 -65,323 -348,564 -877,745 -74,25 -264,80 -424,121 -582,151 -632,167 -730,229 -95,60 -135,133 -114,207 18,68 79,112 200,145 93,26 413,25 522,0 97,-23 206,-77 246,-123 59,-67 75,-110 79,-221 l 4,-103 h 429 428 l 28,24 28,24 v 647 647 l -28,24 -28,24 h -389 c -270,0 -397,-3 -414,-11 -30,-14 -56,-65 -56,-109 0,-17 -5,-40 -10,-51 -12,-22 -60,-49 -87,-49 -10,0 -65,29 -122,65 -151,94 -307,150 -501,181 -93,14 -382,26 -450,18 z"
       id="path929"
       inkscape:connector-curvature="0" />
    <path
       d="m 9837,940 c -93,-24 -183,-92 -233,-176 -80,-137 -85,-423 -10,-572 71,-140 234,-211 419,-182 229,35 347,198 347,480 0,166 -45,299 -127,370 -69,61 -135,83 -253,86 -58,2 -122,-1 -143,-6 z m 224,-105 c 130,-46 199,-222 170,-437 -14,-107 -47,-183 -98,-229 -55,-48 -98,-62 -188,-63 -170,0 -253,85 -277,284 -27,220 45,397 181,446 50,18 160,17 212,-1 z"
       id="path931"
       inkscape:connector-curvature="0" />
    <path
       d="m 11820,935 c -137,-39 -220,-126 -266,-280 -22,-75 -25,-274 -5,-355 31,-126 100,-219 195,-260 108,-48 282,-46 390,5 99,47 177,155 205,283 14,68 14,255 0,324 -26,125 -111,232 -215,272 -68,25 -230,31 -304,11 z m 273,-119 c 86,-50 126,-137 134,-293 9,-169 -24,-282 -105,-355 -51,-46 -100,-63 -188,-62 -146,0 -237,81 -265,233 -16,90 -7,270 17,336 21,60 102,145 154,162 19,7 74,11 121,10 72,-3 92,-7 132,-31 z"
       id="path933"
       inkscape:connector-curvature="0" />
    <path
       d="m 16692,932 c -83,-30 -124,-72 -148,-151 -28,-93 -1,-186 71,-250 20,-17 87,-57 148,-87 62,-31 123,-66 135,-78 79,-71 66,-185 -28,-240 -27,-16 -52,-21 -110,-21 -66,0 -85,5 -154,38 -43,20 -82,34 -87,31 -16,-9 -10,-82 8,-100 27,-26 91,-51 165,-64 141,-25 282,26 343,124 41,67 48,173 15,240 -30,64 -72,96 -220,171 -142,73 -170,99 -177,168 -4,33 1,50 19,77 50,74 148,85 263,32 37,-18 71,-29 76,-26 11,6 12,74 1,91 -4,7 -30,22 -57,34 -70,31 -191,36 -263,11 z"
       id="path935"
       inkscape:connector-curvature="0" />
    <path
       d="m 18907,939 c -106,-25 -198,-100 -246,-203 -37,-77 -51,-154 -51,-276 0,-299 135,-453 395,-454 207,0 339,92 398,279 32,101 32,309 0,410 -40,125 -125,209 -244,240 -59,16 -192,18 -252,4 z m 215,-101 c 55,-16 121,-78 146,-135 51,-120 49,-324 -4,-444 -48,-107 -121,-151 -249,-152 -165,-1 -247,78 -276,264 -33,210 28,391 152,453 60,29 160,36 231,14 z"
       id="path937"
       inkscape:connector-curvature="0" />
    <path
       d="m 1444,927 c -3,-8 -4,-165 -2,-348 4,-373 7,-389 75,-468 87,-102 266,-136 418,-80 73,27 119,70 157,147 l 33,67 3,347 3,348 h -55 -55 l -3,-332 c -3,-368 -5,-378 -71,-446 -77,-80 -256,-77 -328,4 -53,60 -54,67 -59,429 l -5,340 -53,3 c -38,2 -54,-1 -58,-11 z"
       id="path939"
       inkscape:connector-curvature="0" />
    <path
       d="m 2478,929 c -17,-9 -18,-42 -18,-458 0,-489 -3,-461 55,-461 58,0 55,-24 55,422 0,225 4,407 8,404 4,-2 77,-186 162,-407 C 2907,-3 2904,1 2972,14 l 33,6 165,411 165,411 3,-406 2,-407 24,-11 c 14,-6 40,-8 60,-4 l 36,7 v 444 c 0,390 -2,445 -16,459 -11,11 -35,16 -79,16 -52,0 -69,-4 -89,-22 -17,-16 -70,-131 -167,-368 -77,-190 -144,-348 -148,-353 -4,-4 -63,134 -130,305 -166,422 -159,407 -192,423 -32,17 -135,19 -161,4 z"
       id="path941"
       inkscape:connector-curvature="0" />
    <path
       d="M 4011,921 C 3997,895 3690,45 3690,32 c 0,-22 67,-30 100,-12 12,6 32,50 56,125 l 38,115 h 197 197 l 38,-111 c 21,-61 44,-118 52,-125 23,-24 112,-16 112,9 0,17 -312,880 -323,895 -6,7 -34,12 -73,12 -52,0 -65,-3 -73,-19 z m 153,-334 c 42,-120 76,-223 76,-228 0,-11 -320,-13 -320,-1 -1,20 156,460 162,454 3,-4 40,-105 82,-225 z"
       id="path943"
       inkscape:connector-curvature="0" />
    <path
       d="m 5120,481 c 0,-500 -3,-471 55,-471 58,0 55,-29 55,471 v 459 h -55 -55 z"
       id="path945"
       inkscape:connector-curvature="0" />
    <path
       d="m 5567,934 c -4,-4 -7,-206 -7,-449 0,-330 3,-444 12,-453 9,-9 75,-12 236,-12 h 223 l -3,47 -3,48 -172,3 -173,2 -2,408 -3,407 -50,3 c -28,2 -54,0 -58,-4 z"
       id="path947"
       inkscape:connector-curvature="0" />
    <path
       d="m 6257,934 c -4,-4 -7,-211 -7,-460 V 22 l 30,-7 c 17,-4 44,-4 60,0 l 30,7 v 214 214 h 215 215 V 236 c 0,-231 -1,-226 55,-226 58,0 55,-29 55,471 v 459 h -55 -55 V 745 550 h -215 -215 l -2,193 -3,192 -50,3 c -28,2 -54,0 -58,-4 z"
       id="path949"
       inkscape:connector-curvature="0" />
    <path
       d="M 7456,908 C 7449,890 7374,684 7290,451 7166,107 7140,26 7151,19 c 13,-9 96,-7 103,2 2,2 21,56 43,119 l 41,115 195,3 195,2 30,-82 c 16,-46 35,-100 41,-121 14,-40 34,-51 92,-45 22,2 35,9 37,20 3,18 -303,875 -320,895 -6,8 -35,13 -75,13 -63,0 -64,-1 -77,-32 z m 161,-321 c 40,-115 73,-215 73,-223 0,-11 -29,-14 -160,-14 -88,0 -160,3 -160,7 0,6 134,395 153,443 7,18 11,21 15,10 3,-8 38,-109 79,-223 z"
       id="path951"
       inkscape:connector-curvature="0" />
    <path
       d="m 8588,929 c -17,-9 -18,-42 -18,-459 V 21 l 36,-7 c 21,-4 46,-2 61,5 l 26,12 -5,384 c -3,212 -2,385 2,385 4,0 12,-12 18,-27 16,-49 373,-707 395,-731 19,-20 29,-22 87,-20 l 65,3 v 455 455 h -50 -50 l -5,-380 -5,-380 -112,215 c -204,393 -278,524 -304,537 -29,15 -117,16 -141,2 z"
       id="path953"
       inkscape:connector-curvature="0" />
    <path
       d="m 11147,934 c -4,-4 -7,-176 -7,-381 0,-445 0,-444 -98,-443 -20,1 -48,7 -62,15 -36,20 -47,18 -54,-10 -18,-71 29,-108 135,-107 75,0 114,16 152,62 43,50 48,106 45,500 l -3,365 -50,3 c -28,2 -54,0 -58,-4 z"
       id="path955"
       inkscape:connector-curvature="0" />
    <path
       d="m 12648,929 c -17,-9 -18,-42 -18,-459 V 21 l 36,-7 c 20,-4 46,-2 60,5 l 24,11 v 200 200 h 60 c 82,0 134,-23 169,-74 16,-23 55,-107 87,-188 56,-144 58,-148 91,-154 42,-8 83,2 83,21 0,18 -92,249 -125,315 -13,26 -42,63 -65,82 l -40,35 39,18 c 91,41 135,109 135,210 0,134 -66,208 -209,234 -74,14 -304,14 -327,0 z m 325,-103 c 58,-24 81,-59 85,-129 7,-117 -54,-166 -214,-175 l -94,-5 v 162 161 h 95 c 59,0 108,-5 128,-14 z"
       id="path957"
       inkscape:connector-curvature="0" />
    <path
       d="m 13517,925 c -15,-15 -17,-58 -17,-460 V 22 l 30,-7 c 17,-4 44,-4 60,0 l 30,7 v 391 l 1,392 20,-40 c 123,-238 378,-705 396,-723 31,-30 137,-33 153,-3 6,13 10,174 10,455 v 436 l -24,6 c -13,3 -38,4 -57,2 l -34,-3 -5,-378 -5,-378 -39,78 c -81,164 -338,639 -357,658 -26,27 -138,34 -162,10 z"
       id="path959"
       inkscape:connector-curvature="0" />
    <path
       d="m 14752,928 c -18,-22 -324,-877 -320,-896 4,-23 79,-29 100,-9 8,8 31,65 52,126 l 38,111 196,-2 196,-3 38,-110 c 22,-60 46,-116 55,-122 19,-15 81,-17 102,-4 11,7 -20,100 -150,462 l -164,454 -66,3 c -46,2 -69,-1 -77,-10 z m 148,-342 c 44,-125 80,-229 80,-232 0,-2 -75,-4 -166,-4 -154,0 -166,1 -159,18 15,39 155,446 155,450 0,20 21,-34 90,-232 z"
       id="path961"
       inkscape:connector-curvature="0" />
    <path
       d="m 15452,483 3,-458 h 230 230 v 45 45 l -177,3 -178,2 v 410 410 h -55 -55 z"
       id="path963"
       inkscape:connector-curvature="0" />
    <path
       d="m 16147,933 c -4,-3 -7,-210 -7,-459 V 21 l 34,-6 c 19,-4 44,-4 55,0 21,6 21,9 21,466 v 459 h -48 c -27,0 -52,-3 -55,-7 z"
       id="path965"
       inkscape:connector-curvature="0" />
    <path
       d="m 17347,925 c -15,-15 -17,-59 -17,-460 V 21 l 36,-7 c 20,-4 46,-2 60,4 l 24,11 2,405 3,405 154,-402 c 85,-221 161,-408 170,-415 17,-13 69,-16 88,-4 7,5 85,188 173,408 89,219 165,403 171,408 5,6 9,-142 9,-401 0,-409 0,-412 21,-418 11,-4 36,-4 55,0 l 34,6 v 449 c 0,434 -1,450 -19,460 -25,13 -112,13 -146,0 -31,-12 -43,-38 -211,-447 -65,-161 -121,-293 -124,-293 -3,0 -68,160 -144,355 -77,196 -148,363 -159,373 -28,25 -157,30 -180,7 z"
       id="path967"
       inkscape:connector-curvature="0" />
  </g>
</svg>
