<?xml version="1.0" encoding="UTF-8" standalone="no"?>
<svg
   xmlns:dc="http://purl.org/dc/elements/1.1/"
   xmlns:cc="http://creativecommons.org/ns#"
   xmlns:rdf="http://www.w3.org/1999/02/22-rdf-syntax-ns#"
   xmlns:svg="http://www.w3.org/2000/svg"
   xmlns="http://www.w3.org/2000/svg"
   xmlns:sodipodi="http://sodipodi.sourceforge.net/DTD/sodipodi-0.dtd"
   xmlns:inkscape="http://www.inkscape.org/namespaces/inkscape"
   width="800"
   height="600"
   version="1.1"
   id="svg76"
   sodipodi:docname="jovempan.svg"
   inkscape:version="0.92.3 (2405546, 2018-03-11)">
  <metadata
     id="metadata82">
    <rdf:RDF>
      <cc:Work
         rdf:about="">
        <dc:format>image/svg+xml</dc:format>
        <dc:type
           rdf:resource="http://purl.org/dc/dcmitype/StillImage" />
        <dc:title></dc:title>
      </cc:Work>
    </rdf:RDF>
  </metadata>
  <defs
     id="defs80" />
  <sodipodi:namedview
     pagecolor="#ffffff"
     bordercolor="#666666"
     borderopacity="1"
     objecttolerance="10"
     gridtolerance="10"
     guidetolerance="10"
     inkscape:pageopacity="0"
     inkscape:pageshadow="2"
     inkscape:window-width="3840"
     inkscape:window-height="2160"
     id="namedview78"
     showgrid="false"
     inkscape:zoom="2"
     inkscape:cx="256"
     inkscape:cy="137.5235"
     inkscape:window-x="0"
     inkscape:window-y="0"
     inkscape:window-maximized="1"
     inkscape:current-layer="svg76" />
  <path
     d="M 369.46112,111.97863 H 170.28238 c -22.33984,0 -13.99727,18.24102 -13.99727,18.24102 l 96.26095,244.71018 c 9.3379,24.87462 10.042,44.67149 1.98106,59.09259 -7.76973,14.42109 -19.08184,22.89492 -32.93145,26.29102 -13.84961,3.25527 -27.71289,0.57011 -42.12989,-6.6377 -13.85918,-7.92285 -21.77246,-21.63438 -24.45762,-40.72032 -4.52676,-15.68711 1.41504,-32.79883 17.24434,-51.31465 15.84024,-18.38184 25.02363,-38.88282 26.8666,-61.9254 1.41368,-11.87949 -1.84297,-23.04258 -9.75078,-32.93145 -7.92148,-9.19297 -17.81035,-16.40625 -29.69395,-20.36836 -11.87812,-4.09883 -25.02363,-5.37031 -38.16914,-3.38379 -13.85918,1.97559 -25.727739,8.61192 -36.326179,19.21993 -15.13477,15.82929 -25.58965,37.46367 -31.66953,65.73848 -5.80372,28.41426 -4.51719,56.83262 4.66621,84.96524 5.9418,17.81446 19.22402,34.77852 40.28692,51.31876 20.495509,15.69121 42.697269,23.74805 67.142579,23.74805 0,0 185.05022,-0.13945 201.60003,0 13.84961,0 13.71152,-17.81172 13.71152,-17.81172 V 124.42004 c 0,-8.91407 -11.45566,-12.44141 -11.45566,-12.44141 m 372.36039,75.06681 c -5.92676,-17.81036 -19.22402,-34.91798 -40.28692,-51.30782 -20.49551,-15.84024 -42.69863,-23.75899 -67.15352,-23.75899 H 432.6539 c -13.84961,-0.14356 -13.70606,17.81035 -13.70606,17.81035 V 475.4359 c 0,8.90723 11.4502,12.58223 11.4502,12.58223 h 199.31682 c 22.33985,0 14.00273,-18.37637 14.00273,-18.37637 l -96.4045,-244.42718 c -9.19844,-25.02363 -9.90391,-44.81641 -1.98105,-59.23204 7.90781,-14.41973 19.21992,-23.04258 33.06953,-26.29375 13.85371,-3.39473 27.7129,-0.70547 42.12989,6.50781 13.84961,7.90782 21.7711,21.76153 24.45625,40.84884 4.52813,15.68711 -1.41367,32.93145 -17.23887,51.31328 -15.8293,18.38321 -25.02773,38.87325 -27.00879,61.9213 -1.27148,11.8836 1.98106,23.04805 9.90254,33.08594 7.90781,9.19297 17.81172,16.39532 29.68028,20.35743 11.86855,3.95527 25.02363,5.22675 38.16778,3.25117 13.84961,-1.98106 25.7291,-8.62285 36.33711,-19.08594 15.1252,-15.83203 25.58418,-37.6086 31.65996,-65.88478 5.80372,-28.27344 4.52676,-56.6877 -4.66621,-84.9584"
     id="path74"
     inkscape:connector-curvature="0"
     style="fill:#c00028;stroke-width:1.36718762" />
</svg>
