<?xml version="1.0" encoding="UTF-8" standalone="no"?>
<!-- Generator: Adobe Illustrator 16.0.0, SVG Export Plug-In . SVG Version: 6.00 Build 0)  -->

<svg
   xmlns:dc="http://purl.org/dc/elements/1.1/"
   xmlns:cc="http://creativecommons.org/ns#"
   xmlns:rdf="http://www.w3.org/1999/02/22-rdf-syntax-ns#"
   xmlns:svg="http://www.w3.org/2000/svg"
   xmlns="http://www.w3.org/2000/svg"
   xmlns:sodipodi="http://sodipodi.sourceforge.net/DTD/sodipodi-0.dtd"
   xmlns:inkscape="http://www.inkscape.org/namespaces/inkscape"
   version="1.1"
   id="Layer_1"
   x="0px"
   y="0px"
   width="800"
   height="600"
   viewBox="-271.5 538.5 800 600"
   enable-background="new -271.5 538.5 800 800"
   xml:space="preserve"
   sodipodi:docname="airbnb.svg"
   inkscape:version="0.92.3 (2405546, 2018-03-11)"><metadata
   id="metadata873"><rdf:RDF><cc:Work
       rdf:about=""><dc:format>image/svg+xml</dc:format><dc:type
         rdf:resource="http://purl.org/dc/dcmitype/StillImage" /><dc:title></dc:title></cc:Work></rdf:RDF></metadata><defs
   id="defs871" /><sodipodi:namedview
   pagecolor="#ffffff"
   bordercolor="#666666"
   borderopacity="1"
   objecttolerance="10"
   gridtolerance="10"
   guidetolerance="10"
   inkscape:pageopacity="0"
   inkscape:pageshadow="2"
   inkscape:window-width="3840"
   inkscape:window-height="2160"
   id="namedview869"
   showgrid="false"
   inkscape:pagecheckerboard="true"
   inkscape:zoom="2.27625"
   inkscape:cx="400"
   inkscape:cy="400"
   inkscape:window-x="0"
   inkscape:window-y="0"
   inkscape:window-maximized="1"
   inkscape:current-layer="Layer_1" />
<g
   id="g866"
   transform="matrix(0.66666667,0,0,0.66666667,42.833661,212.83333)">
	<path
   d="m 428.037,1170.853 c -5.259,39.044 -31.532,72.831 -68.317,87.845 -18.022,7.502 -37.539,9.759 -57.062,7.502 -18.763,-2.25 -37.535,-8.257 -57.052,-19.507 -27.029,-15.029 -54.058,-38.295 -85.588,-72.833 49.553,-60.809 79.575,-116.371 90.841,-165.904 5.255,-23.281 6.005,-44.303 3.756,-63.825 -3.001,-18.767 -9.759,-36.038 -20.274,-51.054 -23.271,-33.779 -62.31,-53.301 -105.852,-53.301 -43.544,0 -82.581,20.271 -105.854,53.301 -10.514,15.015 -17.266,32.286 -20.275,51.053 -2.998,19.522 -2.249,41.294 3.759,63.825 11.257,49.533 42.038,105.847 90.838,166.646 -30.778,34.547 -58.556,57.817 -85.588,72.834 -19.514,11.263 -38.287,17.271 -57.051,19.515 -20.271,2.256 -39.794,-0.75 -57.06,-7.502 -36.788,-15.014 -63.059,-48.809 -68.317,-87.845 -2.25,-18.765 -0.75,-37.529 6.757,-58.552 2.25,-7.517 6.007,-15.008 9.758,-24.025 5.257,-12.004 11.264,-24.777 17.266,-37.542 l 0.755,-1.491 C -84.727,938.122 -29.167,824.01 28.642,712.904 l 2.249,-4.514 c 6.008,-11.25 12.007,-23.257 18.023,-34.521 6,-12.015 12.757,-23.28 21.014,-33.047 15.766,-18.023 36.79,-27.778 60.061,-27.778 23.273,0 44.295,9.755 60.061,27.778 8.257,9.767 15.014,21.032 21.021,33.047 6.008,11.264 12.008,23.271 18.015,34.521 l 2.258,4.514 c 57.051,111.854 112.611,225.968 164.412,337.838 v 0.741 c 6.008,12.013 11.258,25.538 17.266,37.542 3.756,9.018 7.509,16.509 9.758,24.025 6.006,19.513 8.255,38.297 5.257,57.803 z M 128.489,1135.564 C 87.951,1084.52 61.672,1036.466 52.665,995.939 c -3.751,-17.273 -4.508,-32.287 -2.249,-45.802 1.499,-12.016 6.005,-22.531 12.004,-31.546 14.265,-20.25 38.29,-33.039 66.068,-33.039 27.78,0 52.551,12.026 66.068,33.039 5.998,9.015 10.506,19.53 12.006,31.546 2.248,13.515 1.499,29.278 -2.249,45.802 -9.005,39.787 -35.286,87.832 -75.824,139.625 z m 338.584,-39.037 c -3.75,-9.006 -7.509,-18.764 -11.258,-27.023 -6.008,-13.507 -12.016,-26.279 -17.272,-38.294 l -0.751,-0.742 C 386,917.851 330.439,803.737 271.881,691.142 l -2.252,-4.517 c -6.005,-11.263 -12.013,-23.278 -18.015,-35.286 -7.513,-13.522 -15.021,-27.772 -27.029,-41.293 -24.03,-30.032 -58.559,-46.546 -95.346,-46.546 -37.538,0 -71.316,16.514 -96.097,45.053 -11.257,13.509 -19.517,27.772 -27.023,41.292 -6.008,12.011 -12.016,24.025 -18.023,35.289 l -2.249,4.492 c -57.801,112.611 -114.111,226.73 -165.914,339.342 l -0.75,1.5 c -5.258,12.007 -11.264,24.767 -17.272,38.287 -3.751,8.267 -7.508,17.272 -11.258,27.029 -9.765,27.772 -12.765,54.053 -9.015,81.076 8.266,56.307 45.803,103.611 97.604,124.624 19.514,8.268 39.786,12.016 60.811,12.016 6.005,0 13.514,-0.749 19.521,-1.507 24.772,-3.007 50.294,-11.251 75.067,-25.522 30.788,-17.266 60.066,-42.037 93.097,-78.073 33.028,36.036 63.059,60.808 93.087,78.073 24.78,14.271 50.305,22.516 75.074,25.522 6.008,0.758 13.515,1.507 19.522,1.507 21.024,0 42.038,-3.748 60.811,-12.016 52.553,-21.013 89.339,-69.066 97.598,-124.624 6.009,-26.279 3.002,-52.546 -6.757,-80.333 z"
   id="path864"
   inkscape:connector-curvature="0"
   style="fill:#ff5a60" />
</g>
</svg>