<?xml version="1.0" encoding="UTF-8" standalone="no"?>
<svg
   xmlns:dc="http://purl.org/dc/elements/1.1/"
   xmlns:cc="http://creativecommons.org/ns#"
   xmlns:rdf="http://www.w3.org/1999/02/22-rdf-syntax-ns#"
   xmlns:svg="http://www.w3.org/2000/svg"
   xmlns="http://www.w3.org/2000/svg"
   xmlns:sodipodi="http://sodipodi.sourceforge.net/DTD/sodipodi-0.dtd"
   xmlns:inkscape="http://www.inkscape.org/namespaces/inkscape"
   id="Layer_1"
   viewBox="0 0 146.336 109.71193"
   width="800"
   height="600"
   version="1.1"
   sodipodi:docname="mixer.svg"
   inkscape:version="0.92.4 (5da689c313, 2019-01-14)">
  <metadata
     id="metadata917">
    <rdf:RDF>
      <cc:Work
         rdf:about="">
        <dc:format>image/svg+xml</dc:format>
        <dc:type
           rdf:resource="http://purl.org/dc/dcmitype/StillImage" />
        <dc:title></dc:title>
      </cc:Work>
    </rdf:RDF>
  </metadata>
  <defs
     id="defs915" />
  <sodipodi:namedview
     pagecolor="#ffffff"
     bordercolor="#666666"
     borderopacity="1"
     objecttolerance="10"
     gridtolerance="10"
     guidetolerance="10"
     inkscape:pageopacity="0"
     inkscape:pageshadow="2"
     inkscape:window-width="3840"
     inkscape:window-height="2160"
     id="namedview913"
     showgrid="false"
     inkscape:pagecheckerboard="false"
     inkscape:zoom="1.2"
     inkscape:cx="1249.1667"
     inkscape:cy="364.5"
     inkscape:window-x="0"
     inkscape:window-y="0"
     inkscape:window-maximized="1"
     inkscape:current-layer="Layer_1" />
  <style
     id="style902">.st0,.st1{fill-rule:evenodd;clip-rule:evenodd;fill:#1d2550}.st1{fill:#34bae8}</style>
  <g
     id="g922"
     transform="matrix(0.29993672,0,0,0.29993672,4.5730003,34.854058)">
    <path
       id="path904"
       d="m 21.4,127.9 c -2.7,1.9 -17.6,3 -19.9,1.4 -1.6,-1.1 -1.4,-2.7 -1.4,-4.3 0,-27.5 0,-55 -0.1,-82.5 0,-3.8 1.8,-4.3 4.8,-3.9 8,1 13.2,5.6 16.6,13.5 6.1,-7 12.7,-12.2 21.9,-13.3 11.8,-1.3 22,0.9 28.7,11.9 1.9,3.1 3.3,2 5.2,-0.3 9,-11 20.8,-13.7 34.2,-11.2 10.4,1.9 16.7,8.4 19.7,18.3 1.5,5.2 2.2,10.5 2.2,15.8 0,16.8 -0.1,33.7 0.1,50.5 0.1,4.7 -1.6,6.1 -6.2,6.1 -15.7,0 -15.7,0.2 -15.7,-15.5 0,-11.7 0.1,-23.4 -0.1,-35 0,-3.7 -0.5,-7.5 -1.2,-11.2 -1.1,-5.9 -4.3,-10 -10.6,-11.3 -6.6,-1.4 -12.1,0.3 -16.4,5.6 -4.2,5.2 -5.6,11.3 -5.6,17.7 -0.1,14.5 -0.2,28.9 0,43.4 0.1,4.5 -1.3,6.3 -6.1,6.3 C 55.8,130 55.8,130.1 55.8,114.5 55.8,101 56,87.6 55.6,74.1 55.2,61.7 47.4,54.5 36.8,56.6 c -9.1,1.8 -12.7,8.6 -14.1,16.9 -1.2,2.6 -0.9,5.4 -0.9,8.1 -0.2,15.6 -0.3,31 -0.4,46.3 z"
       class="st0"
       inkscape:connector-curvature="0"
       style="clip-rule:evenodd;fill:#1d2550;fill-rule:evenodd" />
    <path
       id="path906"
       d="m 356.2,93 c -7.5,0 -15,0.1 -22.6,0 -4.7,-0.1 -5.1,1.9 -3.9,5.9 2.5,8.6 9,11.8 16.7,13.7 6.5,1.6 13.1,0.9 19.5,-0.8 4.4,-1.2 6.3,2.4 8.6,5 6,7 4.3,12.6 -4.7,13.8 -8.4,1.1 -16.6,3.2 -25.3,2.7 -22.8,-1.2 -37.2,-15.9 -39.2,-38.2 -1.1,-12.9 -1,-25.7 6.1,-37.1 9.8,-15.7 23.7,-21.8 42.9,-20.1 14.5,1.3 23.9,9.3 30,21.5 4,8 4.9,17.1 3.6,26 -0.7,4.4 -4.1,7.5 -9.2,7.5 -7.4,0 -14.9,0 -22.5,0.1 0,-0.1 0,-0.1 0,0 z m -9.4,-17.9 c 4.9,0 9.9,-0.1 14.8,0 3.1,0 4,-1.1 3.4,-4.3 -1.5,-8.9 -7.5,-14.3 -16.7,-14.3 -8.5,0 -18,7.5 -19,15.1 -0.3,2.6 0.7,3.6 3.3,3.6 4.7,-0.2 9.4,-0.1 14.2,-0.1 z m 79.4,8.7 c -0.2,12.2 -1.7,24.3 -0.2,36.6 1,8 -1.2,10.8 -9.8,10.6 -14.6,-0.4 -14.4,0 -14.3,-14.9 0.2,-23.1 0,-46.3 0.1,-69.4 0,-2.9 -1.7,-7.7 2,-8.3 4.3,-0.7 9.3,-0.7 13.5,2.4 3.2,2.3 3.1,8.6 7.4,8.3 3,-0.3 5.2,-4.6 8.3,-6.8 6.4,-4.4 13.5,-1.6 20.2,-3 1.5,-0.3 3.2,1.7 3.3,3 0.5,5.3 1.5,10.7 -0.5,15.8 -1.5,3.7 -4.6,4.4 -8.4,3.1 -7.1,-2.5 -14.4,0.7 -18.7,6.9 -3.6,4.9 -2.7,10.3 -2.9,15.7 z m -142.1,49.5 c -5.7,-0.2 -8.4,-4.5 -11.3,-8.4 -8.4,-11.3 -16.2,-23.1 -25.2,-33.8 -3.9,-4.7 -3.5,-8.1 -0.3,-11.6 10,-10.7 17.3,-23.3 25.8,-35 3.2,-4.4 7.4,-8.9 13.7,-7.5 5.4,1.2 9.4,4.8 9.9,10.9 0.4,4.5 -1.6,8.1 -4.1,11.5 -5.4,7.3 -10.8,14.5 -16.5,21.5 -2.5,3.1 -2.2,5.2 0.2,8.3 6.5,8.4 12.4,17.2 18.8,25.6 3.1,4 3.2,7.6 0.8,11.9 -2.6,4.7 -6.7,6.2 -11.8,6.6 z"
       class="st1"
       inkscape:connector-curvature="0"
       style="clip-rule:evenodd;fill:#34bae8;fill-rule:evenodd" />
    <path
       id="path908"
       d="m 200.9,132.2 c -4.3,-0.1 -7.8,-1.7 -9.8,-5.6 -2.3,-4.5 -1.5,-8.9 1.4,-12.8 6.1,-8.3 12.2,-16.5 18.5,-24.6 2.3,-2.9 2.4,-5.2 0,-8.2 -6.5,-8.2 -12.6,-16.7 -18.8,-25.2 -3.1,-4.3 -3.3,-8.9 -0.2,-13.3 2.7,-3.8 6.6,-4.8 11,-4.1 3.2,0.5 5.3,2.6 7.1,5 9.4,12.5 18.6,25 28.1,37.5 2.3,3 2.3,5.2 0,8.3 -9.5,12.4 -18.7,25 -28,37.5 -2.3,3.2 -5.3,5.2 -9.3,5.5 z M 172.4,87.8 c 0,12.1 -0.1,24.2 0.1,36.2 0.1,4.2 -1.1,6 -5.7,6 -16.2,0.2 -16.2,0.3 -16.2,-15.7 V 50.7 c 0,-8.2 5.4,-13.3 12.4,-12.3 5.7,0.8 9.2,5.2 9.3,11.9 0.2,12.5 0.1,25 0.1,37.5 z M 161.8,0 c 6.5,0.1 11.5,5.3 11.3,11.8 -0.2,6.2 -5.3,11.3 -11.4,11.3 -6.7,0.1 -12.1,-5.3 -12,-12 0.2,-6.3 5.4,-11.2 12.1,-11.1 z"
       class="st0"
       inkscape:connector-curvature="0"
       style="clip-rule:evenodd;fill:#1d2550;fill-rule:evenodd" />
  </g>
</svg>
