<?xml version="1.0" encoding="UTF-8" standalone="no"?>
<svg
   width="800"
   height="600"
   viewBox="0 0 800 600"
   fill="none"
   version="1.1"
   id="svg144"
   sodipodi:docname="brasilparalelo.svg"
   inkscape:version="1.1.2 (0a00cf5339, 2022-02-04)"
   xmlns:inkscape="http://www.inkscape.org/namespaces/inkscape"
   xmlns:sodipodi="http://sodipodi.sourceforge.net/DTD/sodipodi-0.dtd"
   xmlns="http://www.w3.org/2000/svg"
   xmlns:svg="http://www.w3.org/2000/svg">
  <defs
     id="defs148" />
  <sodipodi:namedview
     id="namedview146"
     pagecolor="#505050"
     bordercolor="#ffffff"
     borderopacity="1"
     inkscape:pageshadow="0"
     inkscape:pageopacity="0"
     inkscape:pagecheckerboard="false"
     showgrid="false"
     inkscape:zoom="1"
     inkscape:cx="287.5"
     inkscape:cy="256.5"
     inkscape:window-width="2192"
     inkscape:window-height="1196"
     inkscape:window-x="0"
     inkscape:window-y="0"
     inkscape:window-maximized="1"
     inkscape:current-layer="svg144" />
  <g
     id="g1635"
     transform="translate(0,15.547484)">
    <g
       id="g1330">
      <path
         d="m 469.26473,182.48181 v 0.0535 -0.0604 c -6.9036,0.36113 -14.10405,0.67101 -21.59984,0.92961 -2.74752,0.0505 -5.45602,0.6557 -7.9648,1.77887 -2.63046,1.14996 -4.12625,2.51416 -5.96941,4.31983 -9.04207,8.9166 -21.22188,13.91506 -33.91124,13.91506 -12.6886,0 -24.86917,-4.99846 -33.91124,-13.91506 -1.71692,-1.80261 -3.75441,-3.2678 -6.00843,-4.31983 -2.5218,-1.08492 -5.22341,-1.68783 -7.96556,-1.77887 -7.47819,-0.25402 -14.68938,-0.56848 -21.59297,-0.92961 v 0.0604 -0.0535 l -5.28775,-0.30069 v 1.33742 c 3.7889,1.55163 7.03909,4.18439 9.34743,7.56924 h 0.0398 c 6.46902,11.67329 15.93114,21.40627 27.4101,28.19434 11.47896,6.78729 24.55854,10.38332 37.88906,10.41774 h 0.13312 c 13.329,-0.0329 26.40856,-3.62968 37.88599,-10.41698 11.47819,-6.78806 20.93879,-16.52104 27.40628,-28.1951 h 0.0398 c 2.30985,-3.3841 5.55929,-6.01607 9.34734,-7.56924 v -1.33742 z"
         fill="#131313"
         id="path106"
         style="fill:#039bfe;fill-opacity:1;stroke-width:7.6511" />
      <path
         d="M 488.31293,149.49404 C 474.95945,146.73201 472.14231,134.38082 472.14231,134.38082 467.63352,118.7519 458.17598,105.01378 445.19434,95.235832 432.21271,85.45793 416.41011,80.169716 400.16679,80.168261 h -0.34735 c -16.24254,0.0015 -32.04591,5.289669 -45.02755,15.067571 -12.98163,9.777948 -22.43917,23.516068 -26.94797,39.144988 0,0 -2.83734,12.35119 -16.16412,15.11322 C 274.28998,152.22243 250,156.64248 250,161.631 c 0,5.65723 31.29396,10.58608 77.49044,13.14079 0,0.12694 28.32899,1.33665 28.26932,1.20351 13.9342,0.4277 28.71003,0.6687 44.06657,0.6687 h 0.34735 c 15.35654,0 30.13237,-0.22799 44.06656,-0.6687 -0.0604,0.12008 28.23566,-1.07651 28.26932,-1.20351 C 518.71232,172.21708 550,167.28823 550,161.631 c -0.0134,-4.98852 -24.31063,-9.40857 -61.68707,-12.13696 z m -42.544,3.18977 c -0.93879,1.39096 -2.15377,2.57305 -3.56847,3.47283 -1.41545,0.89977 -3.00077,1.49808 -4.65723,1.7567 -24.85692,4.18133 -50.23642,4.18133 -75.09335,0 -1.65722,-0.25862 -3.24329,-0.85693 -4.65951,-1.7567 -1.41623,-0.89978 -2.63275,-2.08187 -3.57308,-3.47283 -2.87758,-4.19283 -1.6557,-9.26167 -1.50191,-9.85005 2.72993,-10.42923 8.83321,-19.658 17.35579,-26.24484 8.52256,-6.58653 18.98393,-10.15952 29.74827,-10.16029 h 0.35424 c 10.76282,0.008 21.22036,3.58333 29.7414,10.16871 8.52104,6.58531 14.62663,15.81102 17.36266,26.23642 0.13395,0.58838 1.37566,5.65722 -1.50881,9.86993 z"
         fill="#131313"
         id="path108"
         style="fill:#039bfe;fill-opacity:1;stroke-width:7.6511" />
      <path
         d="m 403.53864,45.555875 c -0.9365,-0.760146 -2.09564,-1.193577 -3.29992,-1.234617 -1.20505,-0.04097 -2.39097,0.312651 -3.3772,1.007291 L 255.12102,148.79168 397.07575,38.453999 c 0.9319,-0.677715 2.05279,-1.045823 3.20505,-1.053014 1.1515,-0.0067 2.27697,0.346835 3.21806,1.01286 0,0 144.38408,109.830015 144.77812,110.143715 0.31292,0.2762 0.52026,0.6534 0.58607,1.06579 0.0657,0.41239 -0.0134,0.83474 -0.22495,1.1951 -0.18363,0.28156 -0.44681,0.50116 -0.75668,0.63122 -0.30911,0.13012 -0.65111,0.16373 -0.97935,0.0972 -4.88141,-1.50727 -9.84622,-2.72914 -14.86916,-3.658 -1.51952,-0.17519 -2.94416,-0.8309 -4.06657,-1.87222 -1.50192,-1.17674 -124.4277,-100.460745 -124.4277,-100.460745 z"
         fill="#131313"
         id="path110"
         style="fill:#039bfe;fill-opacity:1;stroke-width:7.6511" />
      <path
         d="m 547.24255,151.57361 c 0.93267,0 1.68935,-0.75745 1.68935,-1.69164 0,-0.93421 -0.75668,-1.69166 -1.68935,-1.69166 -0.93344,0 -1.68937,0.75745 -1.68937,1.69166 0,0.93419 0.75593,1.69164 1.68937,1.69164 z"
         fill="#131313"
         id="path112"
         style="stroke-width:7.6511" />
      <path
         d="m 403.91279,274.11532 c -0.98701,0.69395 -2.17293,1.04667 -3.37798,1.00459 -1.20428,-0.0421 -2.36265,-0.47743 -3.29915,-1.23871 L 275.92602,180.26146 c -1.1228,-1.04055 -2.54706,-1.69549 -4.06641,-1.87223 -2.27009,-0.43458 -12.07139,-2.79494 -14.51506,-3.39708 -0.16349,-0.0696 -0.33708,-0.11256 -0.51413,-0.12711 h -0.13365 c -0.32387,7.7e-4 -0.6401,0.0972 -0.90893,0.27851 -0.26883,0.18056 -0.47818,0.43764 -0.60117,0.73757 -0.12299,0.29992 -0.15403,0.62968 -0.0897,0.94797 0.0644,0.31751 0.22151,0.6098 0.45153,0.83779 l 0.0535,0.0405 c 0.0939,0.0841 0.1969,0.15838 0.30711,0.22036 l 141.3671,102.66794 c 0.94185,0.66258 2.06656,1.0153 3.21729,1.00841 1.15148,-0.008 2.27161,-0.37414 3.20504,-1.04896 L 542.57537,177.46635 Z"
         fill="#131313"
         id="path114"
         style="fill:#039bfe;fill-opacity:1;stroke-width:7.6511" />
    </g>
    <g
       id="g1612">
      <path
         d="m 124.64662,387.25188 c 0,14.90347 -11.28905,23.47578 -33.232474,23.47578 H 50.000012 V 323.80102 H 88.93623 c 19.98502,0 31.11965,8.44123 31.11965,22.47531 0,9.44184 -4.83676,16.01269 -11.65416,19.37539 9.79262,2.72787 16.2449,10.05375 16.2449,21.60016 z M 62.407959,333.85484 v 27.81655 h 25.420492 c 12.647439,0 19.842379,-4.7182 19.842379,-13.90843 0,-9.19019 -7.20607,-13.88523 -19.842379,-13.88523 z m 49.722091,52.4077 c 0,-10.05952 -7.42265,-14.53175 -21.200749,-14.53175 H 62.407959 v 28.93729 h 28.521342 c 13.749309,0 21.189639,-4.34603 21.189639,-14.40554 z"
         fill="#131313"
         id="path116"
         style="fill:#039bfe;fill-opacity:1;stroke-width:6.54324" />
      <path
         d="m 244.72166,406.50726 -15.74238,-22.45215 c -1.71302,0.12586 -3.59748,0.24577 -5.45313,0.24577 h -21.45269 v 26.45557 h -12.40205 v -86.92667 h 33.85474 c 22.56567,0 36.20113,11.43774 36.20113,30.30995 0,13.41647 -6.94369,23.0985 -19.09449,27.45054 l 20.58504,29.16618 h -8.3315 c -1.60114,-10e-4 -3.17871,-0.38802 -4.59991,-1.1274 -1.42054,-0.7394 -2.64347,-1.80986 -3.56476,-3.12179 z m 2.6088,-52.38486 c 0,-12.41562 -8.3073,-19.49546 -24.18121,-19.49546 h -21.07579 v 39.11694 h 21.08167 c 15.86803,-0.0286 24.17533,-7.22858 24.17533,-19.64995 z"
         fill="#131313"
         id="path118"
         style="fill:#039bfe;fill-opacity:1;stroke-width:6.54324" />
      <path
         d="m 386.5111,388.99035 h -46.1305 l -9.54725,21.73142 h -12.76718 l 35.13918,-77.71893 c 1.24125,-2.74862 3.24938,-5.08011 5.7816,-6.71434 2.5316,-1.63421 5.48063,-2.50197 8.49313,-2.49892 h 2.17564 l 39.43481,86.92695 h -6.99669 c -1.7922,0 -3.54513,-0.52214 -5.04615,-1.50297 -1.50036,-0.98084 -2.68338,-2.37848 -3.40444,-4.02149 z m -4.3447,-9.93362 -18.72349,-42.59408 -18.72284,42.59408 z"
         fill="#131313"
         id="path120"
         style="fill:#039bfe;fill-opacity:1;stroke-width:6.54324" />
      <path
         d="m 611.84598,323.79544 h 5.34583 v 77.73046 c 0,1.20854 -0.23556,2.40463 -0.69359,3.52092 -0.46456,1.11693 -1.13851,2.13113 -1.98914,2.98502 -0.85717,0.85455 -1.86482,1.53244 -2.98373,1.99504 -1.11234,0.46261 -2.30975,0.70078 -3.51371,0.70078 H 604.7989 V 330.8524 c 0,-0.92691 0.17668,-1.84481 0.53655,-2.70136 0.35334,-0.85655 0.87025,-1.63487 1.52458,-2.29033 0.65432,-0.65546 1.43296,-1.1753 2.28359,-1.52968 0.85716,-0.35439 1.77322,-0.53635 2.70236,-0.53559 z"
         fill="#131313"
         id="path122"
         style="fill:#039bfe;fill-opacity:1;stroke-width:6.54324" />
      <path
         d="m 690.60045,323.79544 c 3.29124,0 6.44509,1.30777 8.76793,3.636 2.3294,2.32824 3.63151,5.48627 3.63806,8.77962 v 63.70781 H 750 c 0,2.86594 -1.13853,5.61411 -3.16039,7.64121 -2.02187,2.02644 -4.77002,3.16627 -7.62942,3.16758 h -48.60974 z"
         fill="#131313"
         id="path124"
         style="fill:#039bfe;fill-opacity:1;stroke-width:6.54324" />
      <path
         d="m 468.28069,400.78848 c 0.52346,-1.11693 1.26286,-2.11936 2.17237,-2.94839 0.9095,-0.82837 1.9826,-1.46765 3.14075,-1.88053 1.15815,-0.41287 2.39483,-0.59085 3.62495,-0.52346 1.23014,0.0668 2.4341,0.37819 3.5399,0.91474 6.47127,3.14403 13.56414,4.78966 20.74862,4.81517 15.00366,0 21.44875,-5.83918 21.44875,-13.41652 0,-21.23412 -52.56841,-7.82349 -52.56841,-40.11216 0,-13.41071 10.4103,-24.83711 33.22659,-24.83711 10.16819,0 20.70936,2.73358 27.90038,7.69754 l -4.08952,9.93964 c -7.1125,-4.5588 -15.36354,-7.01325 -23.81086,-7.08018 -14.74848,0 -21.07579,6.21071 -21.07579,13.78249 0,21.23982 52.56842,7.94919 52.56842,39.86615 0,13.29056 -10.65895,24.71114 -33.59956,24.71114 -13.26969,0 -26.28421,-4.46642 -33.22659,-10.92852 z"
         fill="#131313"
         id="path126"
         style="fill:#039bfe;fill-opacity:1;stroke-width:6.54324" />
      <path
         d="m 131.43589,475.36834 c 0,20.11852 -15.37728,32.78624 -39.559124,32.78624 H 79.354959 v 13.94822 c 0,1.97148 -0.781917,3.86247 -2.174324,5.25684 -1.391749,1.39437 -3.280128,2.1776 -5.248328,2.1776 H 50.068705 v -86.92699 h 41.785149 c 24.204756,-0.0287 39.582036,12.63893 39.582036,32.75809 z m -29.51525,0 c 0,-6.33123 -3.842847,-10.17997 -11.899544,-10.17997 H 79.354959 v 20.36518 h 10.666137 c 8.085488,0 11.899544,-3.84872 11.899544,-10.18521 z"
         fill="#131313"
         id="path128"
         style="fill:#039bfe;fill-opacity:1;stroke-width:6.54324" />
      <path
         d="m 651.97569,486.05084 c 0,-26.3071 20.70936,-45.45328 48.97616,-45.45328 28.27336,0 48.98271,19.12328 48.98271,45.45328 0,26.32936 -20.70935,45.4533 -48.98271,45.4533 -28.2668,0 -48.97616,-19.12394 -48.97616,-45.4533 z m 68.44231,0 c 0,-13.53665 -8.67634,-21.73206 -19.46615,-21.73206 -10.78326,0 -19.46615,8.19541 -19.46615,21.73206 0,13.53667 8.68289,21.73142 19.46615,21.73142 10.78981,0 19.43998,-8.19475 19.43998,-21.73142 z"
         fill="#131313"
         id="path130"
         style="fill:#039bfe;fill-opacity:1;stroke-width:6.54324" />
      <path
         d="m 266.87577,507.80516 h -7.99388 v 22.00624 h -29.4459 v -87.4982 h 42.0652 c 24.3474,0 39.82675,12.75277 39.82675,33.00935 0,12.62714 -5.99492,22.12597 -16.4785,27.50189 l 18.35183,27.00986 h -20.84153 c -3.269,0 -6.48893,-0.80352 -9.37581,-2.34052 -2.88689,-1.53636 -5.35303,-3.75844 -7.18317,-6.47193 z m 2.74686,-42.76009 h -10.74074 v 20.5026 h 10.74074 c 8.11362,0 11.99115,-3.87163 11.99115,-10.24802 0,-6.37705 -3.87753,-10.25458 -11.99115,-10.25458 z"
         fill="#131313"
         id="path132"
         style="fill:#039bfe;fill-opacity:1;stroke-width:6.54324" />
      <path
         d="m 187.325,514.36476 h -32.98645 l -5.83003,15.14957 h -29.75474 l 34.88792,-79.93814 c 0.90755,-2.07878 2.40071,-3.84677 4.29629,-5.08933 1.89493,-1.2419 4.11047,-1.90408 6.37574,-1.90474 h 21.12681 l 37.94296,86.92633 h -30.26316 z m -8.06259,-21.11372 -8.43358,-21.85771 -8.42769,21.85771 z"
         fill="#131313"
         id="path134"
         style="fill:#039bfe;fill-opacity:1;stroke-width:6.54324" />
      <path
         d="m 387.76741,514.36476 h -32.98056 l -5.83003,15.14957 H 319.20208 L 354.09,449.57619 c 0.90755,-2.07878 2.40006,-3.84808 4.29563,-5.08999 1.89559,-1.24256 4.11113,-1.90408 6.3764,-1.90408 h 21.12681 l 37.93707,86.92633 h -30.2625 z m -8.0567,-21.11372 -8.43357,-21.85771 -8.43359,21.85771 z"
         fill="#131313"
         id="path136"
         style="fill:#039bfe;fill-opacity:1;stroke-width:6.54324" />
      <path
         d="m 576.30309,506.90742 v 22.10963 h -72.15888 v -86.92698 h 70.54924 v 12.19268 c 0,1.3021 -0.25518,2.59112 -0.75247,3.79377 -0.49729,1.20266 -1.2236,2.29603 -2.14619,3.21601 -0.92259,0.92063 -2.00878,1.6502 -3.21274,2.14815 -1.20394,0.49793 -2.48642,0.75377 -3.78853,0.75247 H 532.9083 v 10.18586 h 36.70759 v 21.11374 H 532.9083 v 11.43759 z"
         fill="#131313"
         id="path138"
         style="fill:#039bfe;fill-opacity:1;stroke-width:6.54324" />
      <path
         d="m 429.62322,442.58212 h 29.26139 v 64.20557 h 30.50458 c 2.30323,0 4.50831,0.91539 6.13757,2.54532 1.62272,1.63058 2.53877,3.84153 2.53877,6.14672 v 14.0346 h -68.44231 z"
         fill="#131313"
         id="path140"
         style="fill:#039bfe;fill-opacity:1;stroke-width:6.54324" />
      <path
         d="m 583.0688,442.58212 h 29.26138 v 64.20557 h 30.50459 c 2.30323,0 4.51484,0.91539 6.13757,2.54532 1.62926,1.63058 2.54532,3.84153 2.54532,6.14672 v 14.0346 H 583.0688 Z"
         fill="#131313"
         id="path142"
         style="fill:#039bfe;fill-opacity:1;stroke-width:6.54324" />
    </g>
  </g>
</svg>
