<?xml version="1.0" encoding="UTF-8" standalone="no"?>
<svg
   xmlns:dc="http://purl.org/dc/elements/1.1/"
   xmlns:cc="http://creativecommons.org/ns#"
   xmlns:rdf="http://www.w3.org/1999/02/22-rdf-syntax-ns#"
   xmlns:svg="http://www.w3.org/2000/svg"
   xmlns="http://www.w3.org/2000/svg"
   xmlns:xlink="http://www.w3.org/1999/xlink"
   xmlns:sodipodi="http://sodipodi.sourceforge.net/DTD/sodipodi-0.dtd"
   xmlns:inkscape="http://www.inkscape.org/namespaces/inkscape"
   width="800"
   height="600"
   viewBox="0 0 800 600"
   version="1.1"
   id="svg411"
   sodipodi:docname="investments.svg"
   inkscape:version="0.92.3 (2405546, 2018-03-11)">
  <metadata
     id="metadata415">
    <rdf:RDF>
      <cc:Work
         rdf:about="">
        <dc:format>image/svg+xml</dc:format>
        <dc:type
           rdf:resource="http://purl.org/dc/dcmitype/StillImage" />
        <dc:title></dc:title>
      </cc:Work>
    </rdf:RDF>
  </metadata>
  <sodipodi:namedview
     pagecolor="#ffffff"
     bordercolor="#666666"
     borderopacity="1"
     objecttolerance="10"
     gridtolerance="10"
     guidetolerance="10"
     inkscape:pageopacity="0"
     inkscape:pageshadow="2"
     inkscape:window-width="3840"
     inkscape:window-height="2160"
     id="namedview413"
     showgrid="false"
     inkscape:zoom="1"
     inkscape:cx="21"
     inkscape:cy="21"
     inkscape:window-x="0"
     inkscape:window-y="0"
     inkscape:window-maximized="1"
     inkscape:current-layer="svg411" />
  <defs
     id="defs403">
    <linearGradient
       id="b"
       x1="992.18298"
       x2="1019.298"
       y1="516.08099"
       y2="545.95898"
       gradientTransform="matrix(1.34562,0,0,1.34562,-1332.367,316.47)"
       gradientUnits="userSpaceOnUse"
       xlink:href="#a" />
    <linearGradient
       id="a">
      <stop
         offset="0"
         stop-color="#ff1679"
         id="stop398" />
      <stop
         offset="1"
         stop-color="#ff770b"
         id="stop400" />
    </linearGradient>
  </defs>
  <g
     transform="matrix(12.190476,0,0,12.190476,144,-12272.794)"
     id="g409">
    <rect
       width="42"
       height="42"
       y="1010.362"
       rx="8.8760004"
       ry="8.8760004"
       id="rect405"
       x="0"
       style="fill:url(#b)" />
    <path
       style="color:#000000;font-weight:400;line-height:normal;font-family:sans-serif;text-indent:0;text-align:start;text-decoration:none;text-decoration-line:none;text-decoration-style:solid;text-decoration-color:#000000;text-transform:none;white-space:normal;overflow:visible;isolation:auto;mix-blend-mode:normal;fill:#ffffff;fill-rule:evenodd"
       d="m 7.4973966,1017.3522 a 0.50005,0.50005 0 0 0 -0.4921875,0.5058 v 18.9786 a 0.50022217,0.50022217 0 0 0 0,0.049 v 7.8418 a 0.50004997,0.50004997 0 0 0 0.1425781,0.498 0.50005,0.50005 0 0 0 0.4882813,0.1348 H 34.505208 a 0.50004997,0.50004997 0 1 0 0,-1 h -3.5 v -13.5 a 0.50004994,0.50004994 0 0 0 -0.5,-0.5 h -3 a 0.50004994,0.50004994 0 0 0 -0.5,0.5 v 13.5 h -2 v -9.5 a 0.50004997,0.50004997 0 0 0 -0.5,-0.5 h -3 a 0.50004997,0.50004997 0 0 0 -0.5,0.5 v 9.5 h -2 v -11.5 a 0.50004997,0.50004997 0 0 0 -0.5,-0.5 h -2.999999 a 0.50004997,0.50004997 0 0 0 -0.5,0.5 v 11.5 h -2 v -6.5 a 0.50005,0.50005 0 0 0 -0.5,-0.5 h -3 a 0.50005,0.50005 0 0 0 -0.5,0.5 v 6.5 h -1 v -7.2754 l 9.167968,-8.0762 4.173828,3.4453 a 0.50004997,0.50004997 0 0 0 0.658203,-0.021 l 8,-7.4278 v 0.8555 a 0.50005,0.50005 0 1 0 1,0 v -1.9375 a 0.50004997,0.50004997 0 0 0 -0.492187,-0.5684 v 0 a 0.50004997,0.50004997 0 0 0 -0.06641,0 h -1.941407 a 0.50005,0.50005 0 1 0 0,1 h 0.726563 l -7.585938,7.0449 -4.164062,-3.4394 a 0.50004997,0.50004997 0 0 0 -0.648437,0.012 l -8.828125,7.7754 v -17.8946 a 0.50005,0.50005 0 0 0 -0.5078084,-0.5058 z M 28.005208,1031.36 h 2 v 13 h -2 z m -11.999999,2 h 1.999999 v 11 h -1.999999 z m 5.999999,2 h 2 v 9 h -2 z m -11.999999,3 h 2 v 6 h -2 z"
       font-weight="400"
       overflow="visible"
       id="path407"
       inkscape:connector-curvature="0" />
  </g>
</svg>
