<?xml version="1.0" encoding="UTF-8" standalone="no"?>
<svg
   xmlns:dc="http://purl.org/dc/elements/1.1/"
   xmlns:cc="http://creativecommons.org/ns#"
   xmlns:rdf="http://www.w3.org/1999/02/22-rdf-syntax-ns#"
   xmlns:svg="http://www.w3.org/2000/svg"
   xmlns="http://www.w3.org/2000/svg"
   xmlns:sodipodi="http://sodipodi.sourceforge.net/DTD/sodipodi-0.dtd"
   xmlns:inkscape="http://www.inkscape.org/namespaces/inkscape"
   viewBox="0 0 800 600.00002"
   version="1.1"
   id="svg328"
   sodipodi:docname="mining.svg"
   width="800"
   height="600"
   inkscape:version="0.92.3 (2405546, 2018-03-11)">
  <metadata
     id="metadata332">
    <rdf:RDF>
      <cc:Work
         rdf:about="">
        <dc:format>image/svg+xml</dc:format>
        <dc:type
           rdf:resource="http://purl.org/dc/dcmitype/StillImage" />
        <dc:title></dc:title>
      </cc:Work>
    </rdf:RDF>
  </metadata>
  <sodipodi:namedview
     pagecolor="#ffffff"
     bordercolor="#666666"
     borderopacity="1"
     objecttolerance="10"
     gridtolerance="10"
     guidetolerance="10"
     inkscape:pageopacity="0"
     inkscape:pageshadow="2"
     inkscape:window-width="3840"
     inkscape:window-height="2160"
     id="namedview330"
     showgrid="false"
     inkscape:zoom="1"
     inkscape:cx="202.72"
     inkscape:cy="169.28999"
     inkscape:window-x="0"
     inkscape:window-y="0"
     inkscape:window-maximized="1"
     inkscape:current-layer="svg328" />
  <defs
     id="defs201">
    <style
       id="style199">.cls-1{fill:#fbfcf2;}.cls-2{fill:none;stroke:#2e576d;stroke-miterlimit:10;stroke-width:2px;}.cls-3{fill:#2e576d;}.cls-4,.cls-9{fill:#3f5a7c;}.cls-4{opacity:0.15;}.cls-5{fill:#ffc742;}.cls-6{fill:#8a7683;}.cls-14,.cls-6,.cls-7{opacity:0.5;}.cls-7{fill:#dd9e1f;}.cls-8{opacity:0.2;}.cls-10{fill:#274b5b;}.cls-11{fill:#fff;}.cls-12{fill:#e4bd62;}.cls-13{fill:#bb9054;}.cls-15{fill:#a44c3e;}.cls-16{fill:#efefef;}</style>
  </defs>
  <g
     data-name="Layer 2"
     id="Layer_2"
     transform="matrix(1.5126714,0,0,1.5126714,93.350794,44.054597)">
    <g
       data-name="Layer 1"
       id="Layer_1-2">
      <path
         class="cls-1"
         d="m 159.47,137.87 c -16.44,-0.28 -31.84,-6.63 -46.16,-13.52 -19,-9.12 -38.6,-20 -61.28,-19.46 -10.55,0.26 -21.25,3.37 -28.74,9.7 -8.26,7 -11.87,17.26 -11.9,27.19 -0.07,23.14 16.59,43.1 19.31,65.8 2.36,19.75 -7.08,39.55 -2,59.15 7.55,29 39.08,44.8 71,50.47 26.42,4.69 62.15,7.05 82.81,-10.76 10.49,-9 18.87,-23 33.78,-23.08 11.71,-0.1 20.41,8.74 30.59,13.67 17.5,8.48 41,4.67 56,-6.73 23.74,-18 21.43,-43.11 18.72,-68 a 123.17,123.17 0 0 1 3.06,-43 c 3.46,-14 10.88,-27.66 5.9,-42.16 -8.31,-24.22 -46.32,-34.87 -72.94,-34.44 -20.15,0.32 -39.75,5.77 -57.33,14 -16.72,7.79 -32,17.23 -52.15,16.86"
         id="path205"
         inkscape:connector-curvature="0"
         style="fill:#fbfcf2" />
      <circle
         class="cls-2"
         cx="265.5"
         cy="146.08"
         r="4.5"
         transform="rotate(-53.78,265.52888,146.08074)"
         id="circle207"
         style="fill:none;stroke:#2e576d;stroke-width:2px;stroke-miterlimit:10" />
      <circle
         class="cls-3"
         cx="278.48001"
         cy="254.58"
         r="4.5"
         transform="rotate(-53.78,278.50476,254.5879)"
         id="circle209"
         style="fill:#2e576d" />
      <path
         class="cls-3"
         d="m 258.9,255.94 -4.73,6.45 c -1.14,1.56 1.46,3.06 2.59,1.51 l 4.73,-6.45 c 1.14,-1.56 -1.46,-3.06 -2.59,-1.51 z"
         id="path211"
         inkscape:connector-curvature="0"
         style="fill:#2e576d" />
      <path
         class="cls-3"
         d="m 261.82,261 -6.45,-4.73 c -1.56,-1.14 -3.06,1.46 -1.51,2.59 l 6.45,4.73 c 1.56,1.14 3.06,-1.46 1.51,-2.59 z"
         id="path213"
         inkscape:connector-curvature="0"
         style="fill:#2e576d" />
      <path
         class="cls-4"
         d="m 241,221.08 c 0,1 0,1.91 0,2.86 a 116.74,116.74 0 0 1 -16.59,57.42 c -0.91,1.53 -1.87,3.05 -2.86,4.53 q -2.48,3.75 -5.23,7.29 A 117.5,117.5 0 1 1 40.52,137.9 q 3.33,-3.33 6.94,-6.38 c 1.26,-1.09 2.55,-2.13 3.86,-3.15 a 117.59,117.59 0 0 1 119.1,-15 q 4.95,2.15 9.65,4.75 c 1.46,0.79 2.9,1.63 4.31,2.49 l 0.62,3.21 -4.18,5 -7.82,9.36 6,26.4 27.6,-13.2 3.77,-9.41 a 117.55,117.55 0 0 1 8.52,10.5 l 0.59,0.82 A 116.94,116.94 0 0 1 241,221.08 Z"
         id="path215"
         inkscape:connector-curvature="0"
         style="opacity:0.15;fill:#3f5a7c" />
      <path
         class="cls-5"
         d="M 254,204.09 A 115.49,115.49 0 0 1 142.8,319.5 c -1.41,0.06 -2.84,0.09 -4.27,0.09 q -3.32,0 -6.59,-0.19 A 115.5,115.5 0 1 1 179.69,96.15 l 0.16,0.87 1.15,5.98 3.18,16.58 0.15,0.73 v 0.3 l 0.62,3.21 -4.18,5 -7.77,9.36 6,26.4 27.6,-13.2 3.77,-9.41 0.22,-0.55 0.09,-0.24 4.32,-10.86 3.57,-8.94 h 0.5 A 115.24,115.24 0 0 1 254,204.09 Z"
         id="path217"
         inkscape:connector-curvature="0"
         style="fill:#ffc742" />
      <path
         class="cls-6"
         d="m 142.5,320.43 c -2,0.1 -4,0.15 -6,0.15 a 115.5,115.5 0 1 1 0,-231 c 2,0 4,0 6,0.15 a 115.51,115.51 0 0 0 0,230.7 z"
         id="path219"
         inkscape:connector-curvature="0"
         style="opacity:0.5;fill:#8a7683" />
      <path
         class="cls-6"
         d="m 137.75,90.08 c -1.57,-0.15 -3.16,-0.27 -4.75,-0.35 1.57,-0.08 3.16,-0.13 4.75,-0.13 0.42,0 0.83,0 1.25,0 a 115.1,115.1 0 0 1 40.85,7.4 l 1.15,6 A 114.77,114.77 0 0 0 137.75,90.08 Z"
         id="path221"
         inkscape:connector-curvature="0"
         style="opacity:0.5;fill:#8a7683" />
      <path
         class="cls-6"
         d="M 254.5,205.08 A 115.52,115.52 0 0 1 139,320.58 c -0.42,0 -0.83,0 -1.25,0 -1.59,0 -3.18,0 -4.75,-0.13 1.59,-0.08 3.18,-0.2 4.75,-0.35 1.57,-0.15 3.38,-0.34 5,-0.58 A 115.49,115.49 0 0 0 215,130.32 l 3.57,-8.94 a 115.28,115.28 0 0 1 35.9,83.7 z"
         id="path223"
         inkscape:connector-curvature="0"
         style="opacity:0.5;fill:#8a7683" />
      <path
         class="cls-7"
         d="M 234,204.09 A 95.5,95.5 0 1 1 63.14,145.47 l 0.34,-0.45 a 95.56,95.56 0 0 1 116.59,-26.94 q 2.16,1 4.26,2.19 v 0.3 l 0.62,3.21 -4.18,5 -7.77,9.4 6,26.4 27.6,-13.2 3.77,-9.41 0.22,-0.55 A 95.24,95.24 0 0 1 234,204.09 Z"
         id="path225"
         inkscape:connector-curvature="0"
         style="opacity:0.5;fill:#dd9e1f" />
      <g
         class="cls-8"
         id="g229"
         style="opacity:0.2">
        <path
           class="cls-9"
           d="m 233.11,203.34 a 95,95 0 0 1 -94,94 1.5,1.5 0 0 0 0,3 98.07,98.07 0 0 0 97,-97 1.5,1.5 0 0 0 -3,0 z"
           id="path227"
           inkscape:connector-curvature="0"
           style="fill:#3f5a7c" />
      </g>
      <path
         class="cls-3"
         d="m 47.81,188.33 a 93.65,93.65 0 0 1 91.3,-77.49 c 3.86,0 3.87,-6 0,-6 -47.64,0.43 -88.78,34.88 -97.09,81.89 -0.67,3.78 5.11,5.4 5.79,1.6 z"
         id="path231"
         inkscape:connector-curvature="0"
         style="fill:#2e576d" />
      <path
         class="cls-3"
         d="m 46.61,203.34 q 0,-2.46 0.12,-4.92 a 3,3 0 0 0 -3,-3 3.07,3.07 0 0 0 -3,3 q -0.12,2.46 -0.12,4.92 a 3,3 0 0 0 6,0 z"
         id="path233"
         inkscape:connector-curvature="0"
         style="fill:#2e576d" />
      <path
         class="cls-3"
         d="M 227.81,277 C 196.41,314.71 144.08,329.25 97.93,312 57.32,296.82 27.84,258.42 23.8,215.24 a 116.44,116.44 0 0 1 24.57,-83 c 2.37,-3 -1.85,-7.27 -4.24,-4.24 C 12,168.61 8.36,226.31 36.71,269.94 a 121.25,121.25 0 0 0 195.35,11.3 c 2.45,-2.95 -1.77,-7.21 -4.24,-4.24 z"
         id="path235"
         inkscape:connector-curvature="0"
         style="fill:#2e576d" />
      <path
         class="cls-3"
         d="m 221.41,124 a 116.65,116.65 0 0 1 28.89,108.32 c -0.92,3.75 4.87,5.35 5.79,1.6 A 122.88,122.88 0 0 0 225.66,119.76 c -2.67,-2.8 -6.91,1.45 -4.24,4.24 z"
         id="path237"
         inkscape:connector-curvature="0"
         style="fill:#2e576d" />
      <path
         class="cls-3"
         d="m 83.36,103.87 a 117.07,117.07 0 0 1 94.79,-7.05 c 3.65,1.3 5.21,-4.5 1.6,-5.79 a 123,123 0 0 0 -99.42,7.66 c -3.4,1.83 -0.38,7 3,5.18 z"
         id="path239"
         inkscape:connector-curvature="0"
         style="fill:#2e576d" />
      <path
         class="cls-10"
         d="m 169.11,203.78 a 22.71,22.71 0 0 0 -7.79,-3.42 c 0,0 3.87,-2.26 5.46,-4.53 a 17.3,17.3 0 0 0 2.51,-7.59 c 0.13,-1.82 0.44,-9.45 -5.46,-13.84 -4.56,-3.4 -9.79,-4.75 -16.81,-5.19 v -15.4 H 137.6 V 169 h -7.17 V 153.81 H 121 V 169 h -18.51 v 9.86 h 5.44 c 1.48,0 4.12,0.17 5.25,1.43 1.13,1.26 1.32,1.93 1.32,4.39 0,2.46 0,38.36 0,39.29 a 3.87,3.87 0 0 1 -1,2.84 c -0.79,0.75 -1.58,0.93 -3.48,0.93 h -5.63 l -1.94,11.41 H 121 v 15.18 h 9.42 v -15.14 h 7.17 v 15.18 H 147 v -15.43 c 2.43,-0.14 4.7,-0.33 6,-0.5 2.68,-0.35 8.76,-1.06 14.43,-5.06 5.67,-4 7,-10.25 7.08,-16.55 0.08,-6.3 -2.19,-10.61 -5.4,-13.05 z m -38.68,-24 c 0,0 3,-0.27 5.94,-0.22 a 29.73,29.73 0 0 1 9.42,1.33 c 3.87,1.2 6.16,4.13 6.25,7.59 a 7.45,7.45 0 0 1 -4,7.23 22.79,22.79 0 0 1 -9.72,2.39 c -3.43,0.13 -7.83,0 -7.83,0 z m 21.08,45.39 c -2.16,1.2 -6.47,2.26 -10.65,2.57 -4.18,0.31 -10.43,0.18 -10.43,0.18 v -20.37 c 0,0 6,-0.31 10.65,0 a 29.94,29.94 0 0 1 10.34,2.4 8,8 0 0 1 4.84,7.5 c 0,4.65 -2.6,6.55 -4.76,7.71 z"
         data-name="BTC alt"
         id="BTC_alt"
         inkscape:connector-curvature="0"
         style="fill:#274b5b" />
      <path
         class="cls-11"
         d="m 213.23,158.69 a 54.63,54.63 0 0 1 9.66,20.31 c 0.46,1.87 3.35,1.08 2.89,-0.8 a 56.67,56.67 0 0 0 -10,-21 c -1.15,-1.52 -3.76,0 -2.59,1.51 z"
         id="path242"
         inkscape:connector-curvature="0"
         style="fill:#ffffff" />
      <circle
         class="cls-3"
         cx="34.5"
         cy="112.08"
         r="4.5"
         id="circle244"
         style="fill:#2e576d" />
      <circle
         class="cls-2"
         cx="5.5"
         cy="273.07999"
         r="4.5"
         id="circle246"
         style="fill:none;stroke:#2e576d;stroke-width:2px;stroke-miterlimit:10" />
      <path
         class="cls-3"
         d="m 4.5,143.58 v 8 a 1.5,1.5 0 0 0 3,0 v -8 a 1.5,1.5 0 0 0 -3,0 z"
         id="path248"
         inkscape:connector-curvature="0"
         style="fill:#2e576d" />
      <path
         class="cls-3"
         d="M 10,146.08 H 2 a 1.5,1.5 0 0 0 0,3 h 8 a 1.5,1.5 0 0 0 0,-3 z"
         id="path250"
         inkscape:connector-curvature="0"
         style="fill:#2e576d" />
      <g
         data-name="&lt;Group&gt;"
         id="_Group_">
        <rect
           class="cls-12"
           data-name="&lt;Path&gt;"
           height="201.46001"
           id="_Path_"
           rx="4.5900002"
           ry="4.5900002"
           transform="rotate(-47.4,324.04405,119.55817)"
           width="20.07"
           x="313.97"
           y="18.83"
           style="fill:#e4bd62" />
      </g>
      <path
         class="cls-13"
         d="m 249.57,51.7 148.31,136.3 4.57,-5 a 3.57,3.57 0 0 0 -0.21,-5 L 259.4,46.7 a 3.85,3.85 0 0 0 -5.44,0.23 z"
         id="path254"
         inkscape:connector-curvature="0"
         style="fill:#bb9054" />
      <g
         class="cls-14"
         id="g258"
         style="opacity:0.5">
        <path
           class="cls-15"
           d="m 293.65,93.6 c 5.29,4.56 10.8,8.87 15.88,13.67 2.55,2.4 5,4.95 7.39,7.46 l 3.4,3.51 c 0.64,0.66 3.62,3.07 2,1.45 -4.36,-4.45 -9.8,-8.08 -14.4,-12.31 a 178.45,178.45 0 0 1 -14.31,-14.7 c -0.32,-0.37 -0.84,0.17 -0.53,0.53 9.16,10.61 19.73,19.76 30.61,28.55 0.37,0.3 0.87,-0.18 0.53,-0.53 -9.64,-10 -19.56,-19.1 -30.06,-28.16 -0.36,-0.31 -0.9,0.21 -0.53,0.53 z"
           id="path256"
           inkscape:connector-curvature="0"
           style="fill:#a44c3e" />
      </g>
      <g
         class="cls-14"
         id="g262"
         style="opacity:0.5">
        <path
           class="cls-15"
           d="m 359.62,164.07 c 5.29,4.56 10.8,8.87 15.88,13.67 2.55,2.4 5,4.95 7.39,7.46 l 3.4,3.51 c 0.64,0.66 3.62,3.07 2,1.45 -4.36,-4.45 -9.8,-8.08 -14.4,-12.31 a 178.45,178.45 0 0 1 -14.31,-14.7 c -0.32,-0.37 -0.84,0.17 -0.53,0.53 9.16,10.61 19.73,19.76 30.61,28.55 0.37,0.3 0.87,-0.18 0.53,-0.53 -9.64,-10 -19.56,-19.1 -30.06,-28.16 -0.36,-0.31 -0.9,0.21 -0.53,0.53 z"
           id="path260"
           inkscape:connector-curvature="0"
           style="fill:#a44c3e" />
      </g>
      <g
         class="cls-14"
         id="g266"
         style="opacity:0.5">
        <path
           class="cls-15"
           d="m 249.86,50.75 a 255.91,255.91 0 0 0 31.45,31.47 c 11.87,10 24.62,18.83 35.55,30 10.27,10.47 19.2,22.12 29.6,32.49 a 340.47,340.47 0 0 0 32.33,28.44 c 0.38,0.29 0.76,-0.36 0.38,-0.65 A 338.74,338.74 0 0 1 345.1,142.28 c -10.12,-10.26 -18.84,-21.77 -29,-31.93 -10.6,-10.57 -22.82,-19 -34.22,-28.64 A 255.41,255.41 0 0 1 250.43,50.24 c -0.31,-0.37 -0.84,0.16 -0.53,0.53 z"
           id="path264"
           inkscape:connector-curvature="0"
           style="fill:#a44c3e" />
      </g>
      <g
         class="cls-14"
         id="g270"
         style="opacity:0.5">
        <path
           class="cls-15"
           d="m 279.5,82.54 c 17.27,21.18 39.58,36.63 58.45,56.16 18.14,18.78 35.42,37.75 57.41,52.2 0.4,0.27 0.78,-0.38 0.38,-0.65 -22.52,-14.8 -39.9,-34.34 -58.57,-53.44 -9.34,-9.55 -19.73,-17.83 -29.74,-26.62 A 236.67,236.67 0 0 1 280,82 c -0.31,-0.37 -0.83,0.16 -0.53,0.53 z"
           id="path268"
           inkscape:connector-curvature="0"
           style="fill:#a44c3e" />
      </g>
      <g
         class="cls-14"
         id="g274"
         style="opacity:0.5">
        <path
           class="cls-15"
           d="m 247.87,54.27 c 10.48,14.08 24.52,24.37 36.26,37.23 12.11,13.27 23.36,26.45 38,37.07 0.39,0.28 0.77,-0.37 0.38,-0.65 -14.62,-10.59 -25.81,-23.74 -37.88,-37 C 273,78.16 259,67.92 248.52,53.9 c -0.28,-0.38 -0.94,0 -0.65,0.38 z"
           id="path272"
           inkscape:connector-curvature="0"
           style="fill:#a44c3e" />
      </g>
      <g
         class="cls-14"
         id="g280"
         style="opacity:0.5">
        <path
           class="cls-15"
           d="m 372.2,162.68 c 10.48,6.25 17.85,15.75 26.55,24.05 0.35,0.33 0.88,-0.2 0.53,-0.53 -8.75,-8.35 -16.18,-17.9 -26.7,-24.17 a 0.38,0.38 0 0 0 -0.38,0.65 z"
           id="path276"
           inkscape:connector-curvature="0"
           style="fill:#a44c3e" />
        <path
           class="cls-15"
           d="m 371.82,162.37 c 7.52,9.94 17.24,17.2 27.11,24.64 0.39,0.29 0.76,-0.36 0.38,-0.65 -9.75,-7.36 -19.4,-14.55 -26.84,-24.37 -0.29,-0.38 -0.94,0 -0.65,0.38 z"
           id="path278"
           inkscape:connector-curvature="0"
           style="fill:#a44c3e" />
      </g>
      <g
         class="cls-14"
         id="g286"
         style="opacity:0.5">
        <path
           class="cls-15"
           d="m 333.73,125.28 c 10.48,6.25 17.85,15.75 26.55,24.05 0.35,0.33 0.88,-0.2 0.53,-0.53 -8.75,-8.35 -16.18,-17.9 -26.7,-24.17 a 0.38,0.38 0 0 0 -0.38,0.65 z"
           id="path282"
           inkscape:connector-curvature="0"
           style="fill:#a44c3e" />
        <path
           class="cls-15"
           d="m 333.34,125 c 7.52,9.94 17.24,17.2 27.11,24.64 0.39,0.29 0.76,-0.36 0.38,-0.65 -9.75,-7.36 -19.4,-14.55 -26.84,-24.37 -0.29,-0.38 -0.94,0 -0.65,0.38 z"
           id="path284"
           inkscape:connector-curvature="0"
           style="fill:#a44c3e" />
      </g>
      <g
         class="cls-14"
         id="g292"
         style="opacity:0.5">
        <path
           class="cls-15"
           d="m 254,46.87 c 10.05,10.26 20.32,20.95 33.21,27.65 0.43,0.22 0.81,-0.42 0.38,-0.65 -12.83,-6.67 -23,-17.32 -33.06,-27.54 -0.34,-0.35 -0.87,0.19 -0.53,0.53 z"
           id="path288"
           inkscape:connector-curvature="0"
           style="fill:#a44c3e" />
        <path
           class="cls-15"
           d="m 271.42,65.94 a 65.31,65.31 0 0 0 7.35,6.22 94.85,94.85 0 0 0 10.16,5.53 c 0.43,0.22 0.81,-0.43 0.38,-0.65 -3.07,-1.59 -6.29,-3.05 -9.22,-4.9 A 57.2,57.2 0 0 1 272,65.41 c -0.35,-0.33 -0.88,0.2 -0.53,0.53 z"
           id="path290"
           inkscape:connector-curvature="0"
           style="fill:#a44c3e" />
      </g>
      <g
         class="cls-14"
         id="g296"
         style="opacity:0.5">
        <path
           class="cls-15"
           d="m 287.26,81 a 152.71,152.71 0 0 0 19.31,13.9 c 7.65,4.85 14.21,11.09 20.73,17.34 0.35,0.33 0.88,-0.2 0.53,-0.53 -5.67,-5.43 -11.36,-10.94 -17.81,-15.44 -7.55,-5.26 -15.24,-9.66 -22.22,-15.76 -0.36,-0.32 -0.89,0.21 -0.53,0.53 z"
           id="path294"
           inkscape:connector-curvature="0"
           style="fill:#a44c3e" />
      </g>
      <g
         class="cls-14"
         id="g300"
         style="opacity:0.5">
        <path
           class="cls-15"
           d="m 326,115.19 a 152.71,152.71 0 0 0 19.31,13.86 c 7.65,4.85 14.21,11.09 20.73,17.34 0.35,0.33 0.88,-0.2 0.53,-0.53 -5.67,-5.43 -11.36,-10.94 -17.81,-15.44 -7.55,-5.26 -15.24,-9.66 -22.22,-15.76 -0.36,-0.32 -0.89,0.21 -0.53,0.53 z"
           id="path298"
           inkscape:connector-curvature="0"
           style="fill:#a44c3e" />
      </g>
      <g
         class="cls-14"
         id="g304"
         style="opacity:0.5">
        <path
           class="cls-15"
           d="M 355.87,149.08 A 121.63,121.63 0 0 0 375,159.79 c 7.83,3.7 14.65,9.16 21.43,14.48 0.38,0.29 0.91,-0.23 0.53,-0.53 -6.36,-5 -12.75,-10.19 -20,-13.84 -7.25,-3.65 -14.09,-6.77 -20.68,-11.47 -0.39,-0.28 -0.77,0.37 -0.38,0.65 z"
           id="path302"
           inkscape:connector-curvature="0"
           style="fill:#a44c3e" />
      </g>
      <polygon
         class="cls-11"
         points="355.76,160.77 354.9,161.71 354.52,161.38 355.38,160.44 "
         id="polygon306"
         style="fill:#ffffff" />
      <g
         data-name="&lt;Group&gt;"
         id="_Group_2">
        <g
           data-name="&lt;Group&gt;"
           id="_Group_3">
          <path
             class="cls-3"
             d="m 247.6,58.27 c 2,-2.13 7.36,-10.3 10,-9.28 2.31,0.87 5.07,4.66 6.86,6.3 l 31.62,29.07 82.34,75.71 13.36,12.28 c 2.09,1.92 5.07,3.88 6.73,6.19 1.66,2.31 0.37,3.95 -1.24,5.7 -1.81,2 -4.5,6.62 -7.81,5.11 -2,-0.92 -4.1,-3.77 -5.7,-5.25 l -73.12,-67.23 -39.84,-36.66 -14.19,-13 c -2.44,-2.25 -5.88,-4.53 -7.85,-7.21 -0.62,-0.84 -1.7,-0.77 -0.7,-2.29 2.13,-3.23 -3.06,-6.24 -5.18,-3 -3,4.59 -0.11,7.94 3.11,10.91 l 10.72,9.85 38.9,35.77 81.73,75.14 c 2.52,2.31 5,4.74 7.57,7 7,6 12.16,0.08 16.94,-5.12 4.36,-4.74 5.09,-9.83 0.29,-14.45 -3,-2.85 -6.05,-5.56 -9.07,-8.34 L 309.92,88.91 272.38,54.39 c -3.19,-2.94 -6.36,-5.9 -9.58,-8.81 -3.75,-3.38 -7.72,-4 -11.6,-0.09 -2.71,2.75 -5.24,5.7 -7.85,8.54 -2.61,2.84 1.65,7.09 4.25,4.24 z"
             id="path308"
             inkscape:connector-curvature="0"
             style="fill:#2e576d" />
        </g>
      </g>
      <path
         class="cls-16"
         d="m 275.73,54.91 a 3,3 0 0 1 0,4.16 L 256.3,78.5 a 2.95,2.95 0 0 1 -4.15,0 l -6.93,-6.93 -44.14,44.14 c -0.47,-4.62 1.21,-11.47 4.84,-19.38 4.87,-10.63 12.86,-22.7 23.11,-34.89 l 2.77,-3.29 -7.72,-7.73 a 2.94,2.94 0 0 1 0,-4.15 L 243.5,26.84 a 3,3 0 0 1 4.16,0 l 7.73,7.72 3.29,-2.76 c 20.56,-17.3 40.73,-28 52.64,-28 0.57,0 1.11,0 1.62,0.08 L 268.81,48 Z"
         id="path312"
         inkscape:connector-curvature="0"
         style="fill:#efefef" />
      <path
         class="cls-11"
         d="m 230.55,48.71 a 2.94,2.94 0 0 0 0,4.15 l 7.72,7.73 -2.77,3.29 C 225.25,76.07 217.26,88.14 212.39,98.77 A 64.7,64.7 0 0 0 208.6,109 l -5.91,5.91 c -0.47,-4.62 1.21,-11.47 4.84,-19.38 4.87,-10.63 12.86,-22.7 23.11,-34.89 l 2.77,-3.29 -7.72,-7.73 a 2.94,2.94 0 0 1 0,-4.15 L 245.12,26 a 3,3 0 0 1 4.16,0 l 2.41,2.4 a 2.87,2.87 0 0 0 -1.72,0.83 z"
         id="path314"
         inkscape:connector-curvature="0"
         style="fill:#ffffff" />
      <path
         class="cls-3"
         d="m 273.14,55.62 c 1.09,1.65 -12.11,13.1 -13.92,14.92 -0.91,0.91 -3.86,4.92 -5,4.95 -1.37,0 -5.7,-5.7 -6.84,-6.84 a 3,3 0 0 0 -4.24,0 l -44.14,44.14 5.12,2.12 c -0.7,-10.67 5.79,-21.59 11.18,-30.36 a 209,209 0 0 1 18.67,-25.07 3.07,3.07 0 0 0 0,-4.24 c -1.41,-1.41 -7.71,-6.26 -7.51,-7.85 0.11,-0.87 2.76,-2.76 3.37,-3.37 l 6.14,-6.14 5.81,-5.88 c 0.65,-0.65 2.63,-3.42 3.57,-3.57 1.67,-0.26 6.42,5.93 7.93,7.44 a 3.08,3.08 0 0 0 4.24,0 c 8.72,-7.33 17.67,-14.33 27.49,-20.13 8.26,-4.88 18,-10.21 27.94,-9.71 l -2.12,-5.12 -44.15,44.15 a 3,3 0 0 0 0,4.24 l 6.93,6.93 c 2.73,2.73 7,-1.51 4.24,-4.24 l -6.93,-6.93 V 49.3 L 315.07,5.16 A 3,3 0 0 0 312.95,0 c -10.44,-0.52 -20.78,4.67 -29.59,9.73 -10.8,6.2 -20.57,13.88 -30.08,21.87 h 4.24 c -3.29,-3.29 -8.36,-11 -13.85,-9.13 -1.85,0.61 -3.24,2.37 -4.57,3.7 l -7.42,7.42 -7.42,7.42 c -1.34,1.34 -3.08,2.73 -3.71,4.59 -1.84,5.45 5.89,10.58 9.14,13.83 v -4.2 C 222.26,64 215.13,73.07 209.2,83 c -5.55,9.27 -11.87,20.77 -11.13,31.95 a 3,3 0 0 0 5.13,2.05 l 44.14,-44.14 h -4.24 c 2.69,2.69 6.28,8 10.33,8.56 4.05,0.56 6.88,-3.51 9.43,-6.06 l 12,-12 c 3.07,-3.07 6.55,-6.25 3.51,-10.84 -2.17,-3.13 -7.37,-0.13 -5.23,3.1 z"
         id="path316"
         inkscape:connector-curvature="0"
         style="fill:#2e576d" />
      <line
         class="cls-2"
         x1="179.69"
         x2="179"
         y1="96.150002"
         y2="92.580002"
         id="line318"
         style="fill:none;stroke:#2e576d;stroke-width:2px;stroke-miterlimit:10" />
      <path
         class="cls-3"
         d="m 176.06,94.73 7,28.65 0.77,-2.92 -8.66,10.66 c -2,2.48 -5.47,5.25 -5,8.65 1.14,8.56 4,17.18 5.91,25.6 0.47,2 2.74,2.57 4.41,1.79 l 15.36,-7.16 10,-4.63 c 1.47,-0.68 2.8,-1.09 3.8,-2.41 1.14,-1.5 1.82,-3.76 2.64,-5.45 l 5,-10.42 7.28,-15.05 c 1.67,-3.46 -3.5,-6.51 -5.18,-3 l -6.85,14.16 -5.12,10.59 c -0.87,1.81 -2.43,4 -2.88,6 -0.12,0.53 1.62,-0.59 0.36,-0.51 a 10,10 0 0 0 -2.69,1.25 l -9.4,4.36 -15.32,7.11 4.41,1.79 -6,-26 -0.77,2.92 9.25,-11.39 c 2.2,-2.71 5,-4.86 4.28,-8.52 -1.8,-9.29 -4.55,-18.48 -6.81,-27.67 -0.92,-3.75 -6.71,-2.16 -5.79,1.6 z"
         id="path320"
         inkscape:connector-curvature="0"
         style="fill:#2e576d" />
      <path
         class="cls-3"
         d="m 181.89,80.78 -4,-14 c -1.06,-3.71 -6.85,-2.13 -5.79,1.6 l 4,14 c 1.06,3.71 6.85,2.13 5.79,-1.6 z"
         id="path322"
         inkscape:connector-curvature="0"
         style="fill:#2e576d" />
      <path
         class="cls-3"
         d="m 230.29,115.95 12.44,-7.56 c 3.3,-2 0.28,-7.19 -3,-5.18 l -12.44,7.56 c -3.3,2 -0.28,7.19 3,5.18 z"
         id="path324"
         inkscape:connector-curvature="0"
         style="fill:#2e576d" />
    </g>
  </g>
</svg>
