<?xml version="1.0" encoding="UTF-8" standalone="no"?>
<svg
   xmlns:dc="http://purl.org/dc/elements/1.1/"
   xmlns:cc="http://creativecommons.org/ns#"
   xmlns:rdf="http://www.w3.org/1999/02/22-rdf-syntax-ns#"
   xmlns:svg="http://www.w3.org/2000/svg"
   xmlns="http://www.w3.org/2000/svg"
   xmlns:sodipodi="http://sodipodi.sourceforge.net/DTD/sodipodi-0.dtd"
   xmlns:inkscape="http://www.inkscape.org/namespaces/inkscape"
   version="1.1"
   id="Layer_1"
   x="0px"
   y="0px"
   viewBox="0 0 800.00004 600"
   xml:space="preserve"
   sodipodi:docname="gab.svg"
   width="800"
   height="600"
   inkscape:version="1.0.1 (3bc2e813f5, 2020-09-07)"><metadata
   id="metadata941"><rdf:RDF><cc:Work
       rdf:about=""><dc:format>image/svg+xml</dc:format><dc:type
         rdf:resource="http://purl.org/dc/dcmitype/StillImage" /><dc:title>gab-logo</dc:title></cc:Work></rdf:RDF></metadata><defs
   id="defs939" /><sodipodi:namedview
   pagecolor="#ffffff"
   bordercolor="#666666"
   borderopacity="1"
   objecttolerance="10"
   gridtolerance="10"
   guidetolerance="10"
   inkscape:pageopacity="0"
   inkscape:pageshadow="2"
   inkscape:window-width="1920"
   inkscape:window-height="1080"
   id="namedview937"
   showgrid="false"
   inkscape:zoom="1"
   inkscape:cx="326.66086"
   inkscape:cy="271.50241"
   inkscape:window-x="0"
   inkscape:window-y="0"
   inkscape:window-maximized="1"
   inkscape:current-layer="Layer_1" />
<style
   type="text/css"
   id="style914">
	.st0{fill:#25CC80;}
	.st1{fill:#FFFFFF;}
	.st2{fill:#215E54;}
</style>
<title
   id="title916">gab-logo</title>








<g
   id="g952"
   transform="matrix(4.8700424,0,0,4.8700424,79.939338,56.606103)"><path
     class="st0"
     d="m 123.1,38 v 0 C 131,28.2 129.5,13.8 119.7,5.9 109.9,-2 95.6,-0.5 87.6,9.3 87.1,9.9 86.6,10.6 86.2,11.2 79.8,10.4 78.2,26 65.9,26 H 65.5 C 53.2,26 51.6,10.4 45.1,11.2 38.7,0.4 24.7,-3.3 13.8,3.1 2.9,9.5 -0.7,23.6 5.7,34.4 c 0.7,1.3 1.6,2.4 2.6,3.5 v 0 C -14.2,65 10.5,100 65.6,100 h 0.1 c 55.2,0 80,-34.9 57.4,-62 z"
     id="path918" /><path
     class="st1"
     d="m 117.6,34.4 c -6,6.7 -16.3,7.4 -23,1.4 -6.7,-6 -7.4,-16.3 -1.4,-23 6,-6.7 16.3,-7.4 23,-1.4 3.5,3.1 5.5,7.5 5.5,12.2 0,4 -1.5,7.8 -4.1,10.8 z"
     id="path920" /><path
     class="st2"
     d="m 105.4,15 c -4.8,0 -8.7,3.9 -8.7,8.7 0,4.8 3.9,8.7 8.7,8.7 4.8,0 8.7,-3.9 8.7,-8.7 0,-4.8 -3.9,-8.7 -8.7,-8.7 z m -2.3,8 c -1.3,0 -2.4,-1.1 -2.4,-2.4 0,-1.3 1.1,-2.4 2.4,-2.4 1.3,0 2.4,1.1 2.4,2.4 -0.1,1.3 -1.1,2.4 -2.4,2.4 z"
     id="path922" /><path
     class="st1"
     d="M 37.6,33.6 C 31.6,40.3 21.3,41 14.6,35 7.9,29 7.2,18.7 13.2,12 c 6,-6.7 16.3,-7.4 23,-1.4 3.5,3.1 5.5,7.5 5.5,12.2 0,4 -1.4,7.8 -4.1,10.8 z"
     id="path924" /><path
     class="st2"
     d="m 25.4,14.2 c -4.8,0 -8.7,3.9 -8.7,8.7 0,4.8 3.9,8.7 8.7,8.7 4.8,0 8.7,-3.9 8.7,-8.7 0,-4.8 -3.9,-8.7 -8.7,-8.7 z m -2.3,8 c -1.3,0 -2.4,-1.1 -2.4,-2.4 0,-1.3 1.1,-2.4 2.4,-2.4 1.3,0 2.4,1.1 2.4,2.4 0,1.4 -1.1,2.4 -2.4,2.4 0,0 0,0 0,0 z"
     id="path926" /><path
     class="st2"
     d="m 65.7,74.8 c -12.9,0 -24.9,-3.9 -29.4,-5.6 -0.2,-0.1 -0.4,0 -0.5,0.2 -0.1,0.2 0,0.4 0.1,0.5 6.1,4.5 25.3,9.6 29.8,9.6 4.5,0 23.6,-5.1 29.8,-9.6 0.2,-0.1 0.2,-0.4 0.1,-0.6 -0.1,-0.1 -0.3,-0.2 -0.5,-0.1 -4.5,1.7 -16.5,5.6 -29.4,5.6 z"
     id="path928" /><path
     class="st2"
     d="m 49.1,51.7 3.4,-5.5 c 0.5,-0.7 1.4,-1 2.2,-0.5 0.2,0.1 0.4,0.3 0.5,0.5 l 3.4,5.5 z"
     id="path930" /><path
     class="st2"
     d="m 72.8,51.7 3.4,-5.5 c 0.5,-0.7 1.4,-1 2.2,-0.5 0.2,0.1 0.4,0.3 0.5,0.5 l 3.4,5.5 z"
     id="path932" /><path
     class="st2"
     d="m 65.7,7.1 c 0,0 -12.6,0 -18.9,3.1 4.7,0 7.9,12.6 18.9,12.6 11,0 14.2,-12.6 18.9,-12.6 C 78.3,7.1 65.7,7.1 65.7,7.1 Z"
     id="path934" /></g>
</svg>
