<?xml version="1.0" encoding="UTF-8" standalone="no"?>
<svg
   xmlns:dc="http://purl.org/dc/elements/1.1/"
   xmlns:cc="http://creativecommons.org/ns#"
   xmlns:rdf="http://www.w3.org/1999/02/22-rdf-syntax-ns#"
   xmlns:svg="http://www.w3.org/2000/svg"
   xmlns="http://www.w3.org/2000/svg"
   xmlns:sodipodi="http://sodipodi.sourceforge.net/DTD/sodipodi-0.dtd"
   xmlns:inkscape="http://www.inkscape.org/namespaces/inkscape"
   width="800"
   height="600"
   viewBox="0 0 800 600"
   fill="none"
   version="1.1"
   id="svg31"
   sodipodi:docname="gettr.svg"
   inkscape:version="1.0.2 (e86c870879, 2021-01-15)">
  <metadata
     id="metadata35">
    <rdf:RDF>
      <cc:Work
         rdf:about="">
        <dc:format>image/svg+xml</dc:format>
        <dc:type
           rdf:resource="http://purl.org/dc/dcmitype/StillImage" />
        <dc:title></dc:title>
      </cc:Work>
    </rdf:RDF>
  </metadata>
  <sodipodi:namedview
     pagecolor="#ffffff"
     bordercolor="#666666"
     borderopacity="1"
     objecttolerance="10"
     gridtolerance="10"
     guidetolerance="10"
     inkscape:pageopacity="0"
     inkscape:pageshadow="2"
     inkscape:window-width="1920"
     inkscape:window-height="1043"
     id="namedview33"
     showgrid="false"
     inkscape:zoom="1"
     inkscape:cx="416.19176"
     inkscape:cy="300"
     inkscape:window-x="0"
     inkscape:window-y="0"
     inkscape:window-maximized="1"
     inkscape:current-layer="svg31" />
  <g
     id="g24"
     transform="matrix(10,0,0,10,200,35.75)">
    <path
       d="M 0,8 C 0,3.58172 3.58172,0 8,0 h 24 c 4.4183,0 8,3.58172 8,8 v 24 c 0,4.4183 -3.5817,8 -8,8 H 8 C 3.58172,40 0,36.4183 0,32 Z"
       fill="#cc0000"
       id="path2" />
    <path
       d="M 20.0081,21.1996 C 17.2298,15.4251 17.3097,10.6494 27.1735,7.28799 28.5826,6.78293 31.0472,6.46867 33.951,4.36426 c -1.3863,4.07976 -2.6585,4.25372 -3.0179,5.19089 0.7473,-0.08418 1.141,-0.46017 1.9454,-0.8586 -0.2051,0.74405 -0.4566,1.47495 -0.7531,2.18855 -0.4567,0.7681 -0.9919,1.4883 -1.5974,2.1494 0.101,0.0426 0.2097,0.0645 0.3195,0.0645 0.1098,0 0.2185,-0.0219 0.3195,-0.0645 0.2875,-0.1112 0.5451,-0.2859 0.753,-0.5107 0,1.0101 -1.0839,3.6532 -3.6968,4.798 -3.4229,1.5096 -7.7872,0.7071 -8.1923,3.8666"
       fill="#ffffff"
       id="path4" />
    <path
       d="m 15.3086,29.1234 c -0.0764,0.0102 -0.15,0.0354 -0.2162,0.0743 -0.0662,0.0389 -0.1237,0.0906 -0.169,0.152 -0.0453,0.0614 -0.0775,0.1311 -0.0947,0.2051 -0.0171,0.0739 -0.0188,0.1506 -0.005,0.2252 0.0627,0.4433 0.4107,2.6768 0.5705,3.7487 h 0.0285 0.0342 0.0285 l 0.0685,0.0336 0.0742,0.0281 c 0.1145,0.0485 0.2328,0.0879 0.3537,0.1178 0.097,0.0337 0.2111,0.0561 0.3252,0.0842 -0.0115,-0.5443 -0.2796,-3.614 -0.3538,-4.1752 -0.0062,-0.0759 -0.0282,-0.1498 -0.0644,-0.2171 -0.0362,-0.0673 -0.086,-0.1267 -0.1463,-0.1744 -0.0604,-0.0478 -0.1299,-0.083 -0.2045,-0.1035 -0.0746,-0.0205 -0.1527,-0.0258 -0.2294,-0.0156"
       fill="#ffffff"
       id="path6" />
    <path
       d="m 24.9557,29.1234 c -0.0776,-0.0144 -0.1574,-0.0128 -0.2343,0.0047 -0.0769,0.0175 -0.1492,0.0505 -0.2125,0.0969 -0.0633,0.0464 -0.1161,0.1052 -0.155,0.1727 -0.039,0.0675 -0.0633,0.1423 -0.0714,0.2195 -0.0742,0.5219 -0.3366,3.614 -0.388,4.2313 0.1141,0 0.2225,-0.0505 0.3252,-0.0842 0.1207,-0.0308 0.2389,-0.0702 0.3537,-0.1178 l 0.0685,-0.0281 0.0627,-0.0337 h 0.0343 l 0.1141,-0.0393 c 0.1711,-1.0718 0.5191,-3.3053 0.5705,-3.7486 0.0138,-0.0747 0.012,-0.1513 -0.0051,-0.2252 -0.0171,-0.074 -0.0494,-0.1437 -0.0947,-0.2051 -0.0453,-0.0614 -0.1028,-0.1131 -0.169,-0.152 -0.0662,-0.0389 -0.1397,-0.0641 -0.2162,-0.0743"
       fill="#ffffff"
       id="path8" />
    <path
       d="m 24.117,33.6858 c -0.0645,0.0054 -0.1294,0.0054 -0.194,0 l -0.1768,0.0393 h -0.1027 -0.1027 -0.057 l -0.1655,0.0336 H 23.267 23.0901 23.0331 22.9133 22.8562 22.7878 22.6622 22.531 22.4055 22.3485 22.2743 22.1431 18.161 18.0298 17.95 17.8986 17.7731 17.6362 17.5164 17.4365 17.3795 17.2597 17.2083 17.0372 16.9801 L 16.809,33.7251 h -0.0514 -0.1027 -0.1084 l -0.114,-0.0281 c -0.1119,0.0196 -0.2271,0.0059 -0.3309,-0.0393 l 0.0456,0.4882 0.0799,0.853 c 0.2835,0.1934 0.6036,0.3289 0.9413,0.3985 0.974,0.2353 1.9753,0.3428 2.978,0.3198 0.3803,0 0.7397,-0.0112 1.0782,-0.0336 0.6438,-0.0278 1.2826,-0.1237 1.9054,-0.2862 0.3372,-0.0714 0.6569,-0.2067 0.9414,-0.3985 l 0.1198,-1.3356 h -0.0514"
       fill="#ffffff"
       id="path10" />
    <path
       d="m 21.2077,35.5714 c -0.3309,0 -0.6846,0.0337 -1.0783,0.0337 -1.0019,0.0207 -2.003,-0.0716 -2.9836,-0.275 v 0.2245 0.1515 l 0.0456,0.404 0.1027,0.954 1.5403,14.5906 v 0.073 c 0.031,0.3057 0.1756,0.5893 0.4062,0.7965 0.2306,0.2072 0.5309,0.3232 0.8432,0.3258 0.2745,-0.0021 0.5409,-0.0919 0.759,-0.2558 0.2182,-0.164 0.3763,-0.3933 0.4504,-0.6533 0.0188,-0.0661 0.0322,-0.1337 0.04,-0.202 l 1.7115,-16.392 c -0.625,0.1345 -1.2606,0.2152 -1.8998,0.2413"
       fill="#ffffff"
       id="path12" />
    <path
       d="m 21.7039,34.1067 h 0.0627 0.1198 0.1141 0.1198 0.0514 0.1768 0.0514 l 0.1654,-0.0281 h 0.0571 0.1027 c 0.0912,-0.9203 0.348,-3.5298 0.3993,-4.0124 0.0513,-0.4826 -0.4792,-0.6341 -0.5705,-0.6509 -0.0817,-0.012 -0.1649,-0.0079 -0.245,0.0119 -0.0801,0.0198 -0.1554,0.0549 -0.2217,0.1034 -0.0662,0.0485 -0.1221,0.1094 -0.1644,0.1791 -0.0423,0.0698 -0.0701,0.1471 -0.082,0.2274 -0.0571,0.5612 -0.1826,3.8609 -0.1997,4.3099 h 0.0628"
       fill="#ffffff"
       id="path14" />
    <path
       d="m 18.5262,34.146 v -0.0393 -0.0393 -0.0393 -0.1459 -0.2749 -0.4209 -0.477 -1.0719 c 0,-0.1403 0,-0.2806 0,-0.4096 v -0.073 c 0,-0.1122 0,-0.2189 0,-0.3199 v -0.1178 -0.376 c 0,-0.1852 0,-0.3255 0,-0.404 -0.0285,-0.5332 -0.5705,-0.5612 -0.6846,-0.5612 -0.1906,0.0168 -0.3688,0.1005 -0.502,0.2357 v 0.0336 0.0281 0.0281 0.0449 0.0336 0.0449 0.0954 c 0,0.4995 0.1711,3.2997 0.2111,4.1191 h 0.1312 1.0155 z"
       fill="#ffffff"
       id="path16" />
    <path
       d="m 20.6372,29.6172 -0.0513,-0.0449 h -0.0285 l -0.0856,-0.0505 c -0.0997,-0.0407 -0.2059,-0.0635 -0.3138,-0.0673 -0.1079,0.0033 -0.2143,0.0261 -0.3138,0.0673 l -0.0798,0.0505 h -0.0286 l -0.0513,0.0449 c -0.1026,0.1077 -0.158,0.2509 -0.154,0.3984 v 0.5612 c 0,0.4209 0,1.0045 0,1.5825 0,0.2862 0,0.5612 0,0.8418 v 1.2178 h 1.2779 v -0.1123 c 0,-0.4545 0,-1.4254 0,-2.3176 0,-0.8081 0,-1.5489 0,-1.7846 0.0039,-0.1475 -0.0514,-0.2907 -0.1541,-0.3984"
       fill="#ffffff"
       id="path18" />
    <path
       d="m 8.64526,23.1075 v 1.0607 c 3.70824,0.2862 5.70494,2.0202 6.05294,3.6869 v 0.303 0.0562 h 0.0285 0.0286 0.0342 0.0342 l 0.3309,0.2806 h 0.0513 0.0286 l 0.308,0.0785 h 0.0742 c 0.1711,0.0393 0.3594,0.0674 0.5705,0.101 h 0.2339 0.057 0.1826 0.0685 0.0798 0.0799 0.1027 0.1312 0.0628 0.0741 0.1369 0.1484 0.1426 4.8834 0.1426 0.1484 0.1369 0.0742 0.0627 0.1369 0.0685 0.194 0.0627 0.1883 0.057 0.2339 0.1426 0.0514 0.097 l 0.2054,-0.0393 h 0.0627 0.0799 l 0.308,-0.0785 h 0.0571 0.0742 0.0342 0.0342 0.0285 0.0286 v -0.0561 -0.3031 c 0.3251,-1.6835 2.3447,-3.4007 6.0472,-3.6869 v -1.403 z"
       fill="#ffffff"
       id="path20" />
    <path
       d="m 18.4236,35.6162 1.1296,0.073 -0.0856,14.1809 z"
       fill="#ffffff"
       id="path22" />
  </g>
  <defs
     id="defs29">
    <clipPath
       id="clip0">
      <path
         d="M 0,8 C 0,3.58172 3.58172,0 8,0 h 24 c 4.4183,0 8,3.58172 8,8 v 24 c 0,4.4183 -3.5817,8 -8,8 H 8 C 3.58172,40 0,36.4183 0,32 Z"
         fill="#ffffff"
         id="path26" />
    </clipPath>
  </defs>
</svg>
