<?xml version="1.0" encoding="UTF-8" standalone="no"?>
<svg
   xmlns:dc="http://purl.org/dc/elements/1.1/"
   xmlns:cc="http://creativecommons.org/ns#"
   xmlns:rdf="http://www.w3.org/1999/02/22-rdf-syntax-ns#"
   xmlns:svg="http://www.w3.org/2000/svg"
   xmlns="http://www.w3.org/2000/svg"
   xmlns:sodipodi="http://sodipodi.sourceforge.net/DTD/sodipodi-0.dtd"
   xmlns:inkscape="http://www.inkscape.org/namespaces/inkscape"
   height="600"
   style="clip-rule:evenodd;fill-rule:evenodd;image-rendering:optimizeQuality;shape-rendering:geometricPrecision;text-rendering:geometricPrecision"
   viewBox="0 0 800 600"
   width="800"
   xml:space="preserve"
   id="svg4340"
   version="1.1"
   inkscape:version="0.91 r13725"
   sodipodi:docname="pinterest.svg"
   inkscape:export-filename="/home/fernandosantucci/Imagens/pinterest.png"
   inkscape:export-xdpi="90"
   inkscape:export-ydpi="90"><metadata
     id="metadata4353"><rdf:RDF><cc:Work
         rdf:about=""><dc:format>image/svg+xml</dc:format><dc:type
           rdf:resource="http://purl.org/dc/dcmitype/StillImage" /><dc:title></dc:title></cc:Work></rdf:RDF></metadata><sodipodi:namedview
     pagecolor="#ffffff"
     bordercolor="#666666"
     borderopacity="1"
     objecttolerance="10"
     gridtolerance="10"
     guidetolerance="10"
     inkscape:pageopacity="0"
     inkscape:pageshadow="2"
     inkscape:window-width="1920"
     inkscape:window-height="1056"
     id="namedview4351"
     showgrid="false"
     inkscape:zoom="1"
     inkscape:cx="435.82063"
     inkscape:cy="342.74481"
     inkscape:window-x="0"
     inkscape:window-y="24"
     inkscape:window-maximized="1"
     inkscape:current-layer="svg4340" /><defs
     id="defs4342"><style
       type="text/css"
       id="style4344"><![CDATA[
    .fil1 {fill:none}
    .fil0 {fill:#CB2027;fill-rule:nonzero}
   ]]></style></defs><rect
     class="fil1"
     height="2048"
     width="2048"
     id="rect4349"
     x="0"
     y="-1448"
     style="fill:none" /><g
     id="g4362"
     transform="matrix(0.27777778,0,0,0.27777778,117.61834,42.335944)"><title
       id="title4368">logo</title><circle
       r="900"
       cy="909.21985"
       cx="1016.574"
       id="path4355"
       style="opacity:1;fill:#bd081c;fill-opacity:1;stroke:none;stroke-opacity:1;image-rendering:auto"><title
         id="title4358">circle</title></circle><path
       class="fil0"
       d="m 1423.12,388.588 c 96.8717,71.7107 164.308,175.034 182.364,306.493 l 0.01,-10e-4 c 7.3051,52.8296 8.798,106.27 4.8094,158.7 -9.5421,125.402 -50.3859,245.603 -117.997,338.595 -68.3268,93.9768 -163.888,160.285 -282.135,176.639 -29.2524,4.0441 -59.7922,5.0292 -91.5367,2.6138 l -0.063,0 c -71.1485,-5.6835 -110.747,-33.1205 -157.10998,-65.243 -8.99056,-6.228 -18.2492,-12.6425 -27.9236,-19.0169 -18.3791,94.1257 -39.2965,185.873 -71.2229,267.033 -35.1236,89.2867 -83.4957,165.724 -156.139,218.537 l -21.4748,15.613 -3.71221,-26.3634 c -32.1874,-228.652 17.5252,-414.317 65.8347,-594.743 16.6843,-62.3103 33.1996,-123.995 45.8351,-185.37302 -28.5603,-51.6709 -36.0744,-119.162 -26.2984,-182.958 6.92599,-45.1937 22.5331,-88.8095 45.4772,-123.869 23.6563,-36.1477 55.2343,-63.4099 93.4335,-74.5737 29.5547,-8.63741 62.5725,-7.53898 98.32449,6.62245 l 0,0.0626 c 118.545,46.9949 77.1709,176.847 35.8158,306.633 -12.9969,40.7882 -25.9937,81.5705 -33.5859,119.56797 -15.22679,76.1989 -6.49015,138.398 79.4091,155.563 l 0,0.063 c 48.0638,9.7312 90.932,0.6697 127.893,-21.6532 50.8689,-30.7205 91.1339,-86.5536 118.931,-153.547 28.2673,-68.12957 43.4977,-147.39097 43.878,-223.64297 0.502,-100.584 -24.6768,-195.432 -79.7091,-251.281 -61.9016,-62.7839 -138.099,-94.18 -216.471,-100.289 -75.6438,-5.89607 -153.35099,11.6327 -222.37499,47.165 -69.1323,35.5878 -129.463,89.132 -170.229,155.197 -43.9878,71.2879 -65.2028,157.31 -50.0268,251.195 4.56851,28.3323 18.1937,50.8028 31.2803,72.3827 28.9512,47.74257 55.6359,91.74927 4.5567,182.26397 l -5.80748,10.291 -11.5039,-2.5417 c -80.3646,-17.7626 -134.896,-56.7213 -169.779,-111.647 -34.3158,-54.0319 -49.0193,-123.089 -50.2878,-202.237 l 0,-0.3756 c 1.72205,-149.466 55.4835,-281.707 145.856,-380.875 90.8198,-99.658 218.504,-165.853 367.396,-182.506 14.5831,-1.63937 29.263,-2.87953 44.0162,-3.72756 14.40357,-0.82677 29.06457,-1.25433 43.94887,-1.28858 145.898,-0.32834 282.874,39.9485 386.32,116.523 z"
       id="path4347"
       inkscape:connector-curvature="0"
       style="fill:#ffffff;fill-opacity:1;fill-rule:nonzero"><title
         id="title4360">pin</title></path></g></svg>
