<?xml version="1.0" encoding="UTF-8" standalone="no"?>
<!DOCTYPE svg PUBLIC "-//W3C//DTD SVG 1.1//EN" "http://www.w3.org/Graphics/SVG/1.1/DTD/svg11.dtd">
<svg width="100%" height="100%" viewBox="0 0 115 40" version="1.1" xmlns="http://www.w3.org/2000/svg" xmlns:xlink="http://www.w3.org/1999/xlink" xml:space="preserve" xmlns:serif="http://www.serif.com/" style="fill-rule:evenodd;clip-rule:evenodd;stroke-linejoin:round;stroke-miterlimit:2;">
    <g transform="matrix(1,0,0,1,0.0124513,3)">
        <path d="M85.2,26.621C86.837,26.577 88.125,27.588 87.95,29.172C87.906,29.457 87.644,29.875 87.754,30.205C87.841,30.469 88.496,30.843 88.627,31.239C89.173,32.822 87.579,34.295 86.335,34.625C84.698,35.065 82.536,33.724 83.082,31.964C83.126,31.788 83.17,31.612 83.322,31.547C83.541,31.436 83.912,31.525 84.043,31.612C84.741,32.096 84.217,33.24 85.767,33.108C85.745,33.108 85.92,33.064 85.942,33.064C86.226,32.998 86.444,32.8 86.575,32.58C86.815,32.14 86.902,31.217 86.509,31.107C85.462,30.843 85.374,30.359 86.16,29.721C86.466,29.479 86.4,29.018 86.16,28.6C85.985,28.292 85.942,28.204 85.549,28.094C84.261,27.764 84.501,29.809 83.257,29.282C83.126,29.215 83.039,29.084 82.995,28.93C82.515,27.83 84.152,26.643 85.2,26.621Z" style="fill:white;"/>
    </g>
    <g transform="matrix(1,0,0,1,0.0124513,3)">
        <path d="M77.45,26.687C79.305,26.467 81.008,27.347 80.768,29.172C80.724,29.546 80.331,29.964 80.462,30.426C80.506,30.623 81.205,31.195 81.357,31.591C81.881,32.976 80.484,34.384 79.393,34.582C77.908,34.846 76.533,34.472 75.769,33.614C75.42,33.218 75.202,32.559 75.464,31.987C75.638,31.569 76.271,31.195 76.62,31.591C77.144,32.207 76.73,33.328 78.367,33.064C78.672,33.02 78.956,32.844 79.109,32.647C79.524,32.031 79.24,31.151 78.803,30.975C78.127,30.689 78.214,29.964 78.629,29.788C78.825,29.7 79.065,29.37 79.065,29.238C79.153,28.446 78.149,27.853 77.297,28.116C76.861,28.248 76.73,28.732 76.446,29.018C75.354,30.008 74.852,26.995 77.45,26.687Z" style="fill:white;"/>
    </g>
    <g transform="matrix(1,0,0,1,0.0124513,3)">
        <path d="M40.82,21.058C40.034,20.706 39.205,21.498 37.524,20.354C35.472,18.947 34.293,17.363 32.722,14.065C31.128,10.766 30.582,8.919 29.644,4.521C28.705,0.145 29.12,-1.174 29.011,-2.362C28.902,-3.571 27.352,-3.197 26.348,0.981C26.151,1.772 25.758,6.588 25.649,8.611C25.627,9.029 25.605,9.117 25.605,9.117C25.605,9.117 25.518,9.205 25.322,8.919C25.125,8.655 23.903,7.292 23.27,6.126C22.746,5.137 21.698,3.158 21.371,0.167C21.349,-0.075 21.152,-0.339 19.712,0.277C18.271,0.893 17.201,0.981 15.913,1.486C15.018,1.838 13.01,2.762 12.115,4.697C11.875,5.225 11.831,5.841 11.831,6.258C11.831,6.5 11.395,6.214 10.521,6.324C9.626,6.434 7.618,6.544 6.046,8.347C4.475,10.151 4.518,10.964 4.518,10.964C4.518,10.964 1.659,12.877 0.589,16.726C-0.262,19.804 -0.371,23.674 1.331,27.985C3.034,32.295 5.413,34.933 9.561,35.989C10.107,36.121 12.071,36.341 13.643,35.329C15.237,34.318 17.027,33.02 17.332,29.986C17.354,29.766 17.419,29.326 18.031,29.502C18.642,29.678 19.406,29.722 19.559,29.766C19.712,29.81 19.843,29.942 19.733,31.129C19.624,32.317 19.559,33.394 18.445,34.34C17.987,34.714 16.983,34.186 16.59,33.68C16.306,33.328 15.433,33.9 15.52,35.131C15.608,36.385 16.262,37.067 17.9,37.001C18.096,37.001 18.336,36.957 18.598,36.825C19.973,36.121 21.807,33.636 21.676,29.612C21.676,29.37 21.72,29.546 22.528,28.996C23.335,28.446 26.326,26.511 25.016,21.476C23.706,16.418 22.811,15.692 21.829,12.614C20.847,9.535 20.672,7.974 20.759,6.874C20.759,6.786 21.305,7.996 22.025,9.337C22.768,10.678 24.317,12.525 25.322,14.659C26.326,16.792 26.566,17.495 26.741,17.693C26.915,17.891 27.767,18.705 27.374,13.163C26.981,7.622 27.155,6.874 27.286,6.742C27.417,6.61 27.33,6.5 27.679,8.105C28.028,9.689 28.88,13.823 30.364,16.616C31.87,19.408 33.857,21.41 35.974,22.575C36.193,22.685 37.917,23.235 39.751,22.531C40.646,22.157 41.606,21.388 40.82,21.058ZM17.703,27.985C16.983,27.809 17.441,26.467 15.891,25.456C13.206,23.719 11.744,25.632 11.569,26.247C11.46,26.621 11.176,26.995 12.835,26.951C14.407,26.907 15.651,28.688 15.63,29.7C15.608,30.711 15.782,33.13 12.53,34.01C9.277,34.89 6.57,32.163 4.409,26.775C2.248,21.388 2.532,18.243 3.405,15.208C3.929,13.427 4.213,13.735 4.89,15.076C5.13,15.56 5.806,15.912 6.505,15.912C7.313,15.912 8.164,15.472 8.535,15.054C9.255,14.263 8.993,13.471 8.535,13.009C8.077,12.548 7.487,12.35 7.138,13.295C6.789,14.241 5.348,13.361 5.828,12.438C6.287,11.536 7.574,11.426 9.015,12.262C9.626,12.614 10.674,13.185 11.416,16.022C12.05,18.397 10.303,20.64 8.535,20.222C6.767,19.804 7.182,19.079 6.832,18.793C6.483,18.507 5.719,18.837 6.177,20.376C6.636,21.937 9.714,22.465 11.264,21.256C12.29,20.442 14.625,18.705 13.25,13.493C12.639,11.206 10.063,9.843 8.513,9.843C6.963,9.843 6.723,10.129 6.592,9.997C6.461,9.865 7.378,8.853 8.993,8.721C10.609,8.567 11.591,8.633 11.984,8.897C12.377,9.161 12.377,9.821 13.272,10.744C14.167,11.668 14.582,11.514 15.106,11.844C15.324,11.976 15.018,13.999 15.586,15.626C15.717,15.956 15.368,16.022 14.625,16.462C13.883,16.88 13.97,17.737 14.363,17.847C14.756,17.957 15.957,17.407 16.197,18.485C16.437,19.562 17.943,25.522 18.424,26.665C18.926,27.743 18.948,28.292 17.703,27.985ZM14.953,8.853C14.953,9.359 15.018,9.689 14.691,9.513C14.363,9.337 13.927,8.963 13.949,8.721C13.97,8.479 14.342,8.347 14.647,8.303C14.953,8.259 14.931,8.369 14.931,8.369C14.931,8.369 14.953,8.325 14.953,8.853ZM21.894,18.859C22.549,21.014 22.658,21.498 22.418,24.62C22.309,26.071 21.414,26.533 21.218,26.489C21.021,26.445 20.519,24.686 20.126,23.015C19.733,21.344 19.384,20.266 19.384,19.694C19.362,19.145 19.362,19.189 20.301,18.903C21.218,18.617 21.589,16.924 20.432,17.1C19.231,17.275 17.791,16.396 17.529,13.801C17.267,11.206 17.289,11.47 18.293,10.7C19.319,9.931 18.751,7.886 17.987,8.721C17.55,9.205 17.201,9.447 17.114,8.127C17.048,6.808 17.289,5.577 17.136,5.159C16.961,4.763 16.131,4.939 15.848,5.049C15.542,5.137 15.564,5.159 15.433,5.203C14.56,5.467 12.682,6.06 14.385,4.345C15.062,3.664 16.219,3.685 17.158,3.444C18.096,3.224 19.035,2.718 19.209,2.784C19.384,2.85 19.34,3.004 19.057,5.159C18.795,7.138 19.275,9.843 19.733,11.646C20.17,13.427 21.24,16.726 21.894,18.859Z" style="fill:white;"/>
    </g>
    <g transform="matrix(1,0,0,1,0.0124513,3)">
        <path d="M44.947,15.56C44.314,15.67 43.899,14.68 43.899,13.866C43.899,13.053 43.877,7.731 43.855,6.588C43.833,5.444 43.484,5.268 42.349,5.554C41.214,5.84 42.502,6.698 41.061,6.17C40.537,5.972 40.144,5.994 39.62,6.104C37.852,6.5 36.084,8.105 35.888,11.316C35.691,14.526 36.04,17.385 37.197,18.704C38.201,19.848 39.839,19.496 40.603,19.144C41.389,18.814 41.803,17.957 42.262,17.803C42.742,17.671 42.742,18.001 43.179,18.133C43.615,18.286 45.361,17.935 45.754,16.175C45.798,15.846 45.885,15.406 44.947,15.56ZM40.013,16.813C38.354,17.253 37.481,12.745 38.769,9.666C39.337,8.303 40.319,8.237 40.799,8.479C41.541,8.853 41.825,10.568 41.847,12.173C41.847,14.064 41.672,16.373 40.013,16.813Z" style="fill:white;"/>
    </g>
    <g transform="matrix(1,0,0,1,0.0124513,3)">
        <path d="M46.518,6.28C47.063,6.632 47.762,6.016 48.045,7.115C48.176,7.621 48.395,8.105 48.176,10.414C48.024,12.063 47.827,13.801 47.827,15.34C47.827,16.263 47.958,16.483 49.726,16.175C50.207,16.087 50.119,15.714 50.381,10.524C50.447,9.424 50.578,7.841 51.276,7.071C51.953,6.302 51.931,6.478 52.302,6.478C52.695,6.478 54.376,6.324 53.983,4.543C53.59,2.761 51.647,3.685 51.32,3.949C50.992,4.213 50.665,4.565 50.425,4.938C50.185,5.29 49.988,4.301 48.984,4.037C47.98,3.773 46.998,4.609 46.648,5.312C46.299,6.016 46.321,6.17 46.518,6.28Z" style="fill:white;"/>
    </g>
    <g transform="matrix(1,0,0,1,0.0124513,3)">
        <path d="M58.48,-3C57.301,-3 57.367,-2.186 57.039,1.068C56.799,3.443 56.777,3.003 55.708,3.069C54.638,3.135 54.442,4.828 55.228,5.026C56.035,5.246 56.057,5.18 55.839,6.434C55.642,7.687 54.9,12.547 54.987,13.471C55.075,14.394 55.402,16.065 57.323,15.89C58.917,15.736 60.161,13.405 58.939,13.471C57.716,13.537 57.345,12.679 57.585,10.678C57.825,8.677 58.218,6.126 58.393,5.488C58.72,4.301 59.419,5.158 59.659,4.367C59.899,3.553 59.834,3.201 59.31,3.091C58.786,2.981 59.462,-0.251 59.572,-1.527C59.703,-2.824 59.375,-3 58.48,-3Z" style="fill:white;"/>
    </g>
    <g transform="matrix(1,0,0,1,0.0124513,3)">
        <path d="M65.291,-2.912C64.243,-2.89 63.697,-1.703 63.872,-0.911C64.046,-0.141 65.116,0.914 66.12,-0.383C67.124,-1.659 66.317,-2.934 65.291,-2.912Z" style="fill:white;"/>
    </g>
    <g transform="matrix(1,0,0,1,0.0124513,3)">
        <path d="M63.545,2.981C62.104,3.135 60.969,4.916 61.929,4.85C62.868,4.784 63.435,6.06 62.104,10.172C61.122,13.185 60.838,14.526 62.781,15.142C64.723,15.758 66.339,13.449 65.466,13.185C64.702,12.943 63.567,13.866 65.4,7.401C66.426,3.751 64.92,2.849 63.545,2.981Z" style="fill:white;"/>
    </g>
    <g transform="matrix(1,0,0,1,0.0124513,3)">
        <path d="M68.238,5.048C68.303,4.081 70.071,3.971 70.748,4.037C71.425,4.103 71.818,4.587 72.363,4.938C72.931,5.29 74.197,4.037 75.943,4.784C77.69,5.532 77.493,7.247 76.533,9.754C75.594,12.261 74.917,13.888 75.922,15.384C76.926,16.879 73.389,17.165 72.997,15.208C72.604,13.251 73.651,12.305 74.677,8.611C74.896,7.841 75.179,5.774 73.106,6.83C72.429,7.159 70.748,10.128 70.028,13.295C69.547,15.384 69.417,15.428 67.801,14.988C66.95,14.746 68.587,12.195 69.133,8.875C69.329,7.621 69.875,5.774 68.696,5.532C68.412,5.466 68.216,5.422 68.238,5.048Z" style="fill:white;"/>
    </g>
    <g transform="matrix(1,0,0,1,0.0124513,3)">
        <path d="M79.742,10.854C78.563,12.635 78.388,15.714 80.724,17.935C83.06,20.178 89.347,20.705 89.892,14.966C89.98,14.02 89.325,13.251 89.063,13.009C88.801,12.767 88.67,12.701 90.089,12.349C91.442,12.019 93.887,10.788 93.341,8.457C92.817,6.126 90.569,6.786 90.853,7.929C91.027,8.633 91.333,8.523 91.617,8.611C91.9,8.699 92.359,8.787 91.027,9.864C89.696,10.942 87.033,10.744 84.959,12.371C83.191,13.778 83.256,15.846 83.562,16.351C83.977,17.033 85.417,16.439 85.046,15.406C84.784,14.724 84.872,14.174 85.155,13.822C85.439,13.493 85.897,13.383 86.509,13.647C87.775,14.196 88.124,15.296 87.535,16.791C86.989,18.22 84.85,18.264 83.846,17.957C82.841,17.649 79.807,16.879 82.339,11.667C82.427,11.492 83.518,9.622 86.225,8.743C86.312,8.721 86.574,8.765 86.465,8.061C86.356,7.357 85.548,6.632 85.963,4.741C86.378,2.827 86.88,2.212 87.95,1.574C89.019,0.958 90.525,1.992 90.569,2.981C90.634,3.971 90.394,4.235 89.718,4.741C89.281,5.07 90.482,5.818 91.377,4.982C92.293,4.125 92.97,2.19 90.831,0.518C88.233,-1.505 83.715,0.738 83.758,4.389C83.78,6.06 84.195,6.918 84.501,7.511C84.588,7.687 84.064,7.775 83.431,7.995C82.82,8.193 81.444,8.743 80.746,9.556C80.069,10.304 80.025,10.392 79.742,10.854Z" style="fill:white;"/>
    </g>
    <g transform="matrix(1,0,0,1,0.0124513,3)">
        <path d="M93.167,15.538C91.988,18.067 91.508,21.849 93.734,24.004C95.983,26.159 98.886,27.192 101.724,24.664C104.562,22.135 104.19,18.77 102.27,17.429C100.349,16.087 100.589,17.847 100.872,18.089C101.156,18.33 102.095,19.188 100.916,21.519C99.737,23.85 97.402,24.773 95.699,23.146C93.975,21.519 94.105,18.55 96.943,14.57C99.781,10.59 102.139,8.501 106.679,7.115C111.219,5.73 113.533,9.6 111.329,12.591C109.124,15.538 106.57,15.032 106.177,13.493C105.784,11.953 108.578,11.184 108.251,10.568C107.945,9.952 106.177,9.666 104.736,12.129C103.339,14.548 106.33,18.462 111.001,16.131C115.673,13.801 116.044,8.413 111.307,5.554C108.491,3.839 101.855,5.444 98.515,8.721C95.131,12.063 93.844,14.064 93.167,15.538Z" style="fill:white;"/>
    </g>
    <g transform="matrix(1,0,0,1,0.0124513,3)">
        <path d="M109.473,20.485C109.189,20.485 107.858,20.442 106.286,21.431C102.051,24.356 101.527,27.918 102.182,29.655C102.837,31.392 107.006,34.735 111.438,29.282C115.847,23.828 111.787,20.442 109.473,20.485ZM110.259,26.357C108.229,29.15 106.046,30.535 104.932,29.391C103.819,28.248 104.932,26.291 106.286,24.993C106.504,24.773 106.373,24.862 107.617,23.85C109.975,21.915 112.289,23.542 110.259,26.357Z" style="fill:white;"/>
    </g>
    <g transform="matrix(1,0,0,1,0.0124513,3)">
        <path d="M108.775,33.57C107.967,33.724 107.53,34.955 108.403,35.549C109.364,36.208 110.434,35.021 109.888,33.987C109.691,33.614 109.037,33.526 108.775,33.57Z" style="fill:white;"/>
    </g>
    <g transform="matrix(1,0,0,1,0.0124513,3)">
        <path d="M73.455,28.644C73.39,27.456 72.473,26.599 70.487,26.555C68.5,26.511 67.583,27.83 67.54,28.754C67.518,29.677 68.085,29.545 68.085,30.293C68.085,31.041 67.43,30.469 67.452,31.986C67.474,33.57 68.544,34.603 70.508,34.625C72.647,34.647 73.368,32.976 73.412,31.986C73.455,30.997 72.888,30.843 72.888,30.403C72.909,29.941 73.521,29.743 73.455,28.644ZM71.512,32.272C71.469,32.844 71.163,33.13 70.377,33.042C69.592,32.954 69.264,32.756 69.264,32.118C69.264,31.459 69.832,31.436 70.334,31.415C70.814,31.371 71.556,31.7 71.512,32.272ZM70.421,29.765C69.788,29.765 69.439,29.391 69.439,28.952C69.439,28.512 69.897,28.248 70.53,28.226C71.163,28.204 71.643,28.446 71.643,29.018C71.643,29.567 71.251,29.765 70.421,29.765Z" style="fill:white;"/>
    </g>
    <g transform="matrix(1,0,0,1,0.0124513,3)">
        <path d="M64.768,28.886C64.768,30.645 64.724,33.02 64.789,33.328C64.877,33.636 65.182,33.745 65.073,34.097C64.964,34.427 65.029,34.537 64.331,34.537C63.632,34.537 62.716,34.625 62.694,34.251C62.672,33.877 62.847,33.724 62.912,33.526C62.956,33.306 62.956,30.073 62.89,29.919C62.803,29.765 63.021,28.952 62.454,28.776C61.886,28.6 62.301,28.182 62.432,28.05C62.563,27.918 63.982,26.841 64.2,26.819C64.396,26.797 64.724,26.687 64.768,27.522C64.811,28.336 64.768,27.126 64.768,28.886Z" style="fill:white;"/>
    </g>
    <g transform="matrix(1,0,0,1,0.0124513,3)">
        <path d="M56.843,33.24C56.887,34.053 56.341,34.581 55.774,34.581C55.206,34.581 54.551,34.097 54.661,33.174C54.77,32.228 55.556,32.008 56.079,32.184C56.516,32.294 56.822,32.646 56.843,33.24Z" style="fill:white;"/>
    </g>
    <g transform="matrix(1,0,0,1,0.0124513,3)">
        <path d="M50.753,27.083C49.225,27.039 48.286,26.951 47.915,27.127C47.544,27.302 46.911,28.402 47.086,28.688C47.26,28.974 47.369,29.084 47.762,28.93C48.155,28.776 48.766,28.512 48.81,28.952C48.832,29.391 48.963,32.052 48.854,32.976C48.745,33.921 48.701,33.921 48.81,34.075C48.919,34.229 48.941,34.471 49.356,34.471C49.771,34.471 50.469,34.515 50.666,34.339C50.84,34.163 50.971,34.185 50.949,33.855C50.927,33.548 50.84,32.888 50.818,32.228C50.797,31.569 50.862,29.369 50.927,28.974C50.971,28.578 51.473,28.82 51.757,28.952C52.041,29.084 52.586,29.304 52.761,29.26C52.936,29.215 53.329,29.084 52.739,28.006C52.128,26.973 52.281,27.127 50.753,27.083Z" style="fill:white;"/>
    </g>
    <g transform="matrix(1,0,0,1,0.0124513,3)">
        <path d="M45.252,26.775C44.859,26.753 45.23,27.061 44.182,27.061C43.134,27.061 41.104,27.412 40.842,28.82C40.58,30.205 40.908,30.887 41.825,31.436C42.763,31.986 43.593,31.59 44.117,32.294C44.641,32.998 44.357,33.57 43.418,33.548C42.48,33.526 42.065,33.262 41.41,32.712C40.755,32.162 40.013,31.81 40.34,33.328C40.668,34.845 40.646,34.713 40.93,34.823C41.213,34.933 41.475,34.823 41.65,34.691C41.825,34.559 42.043,34.669 42.567,34.713C43.047,34.757 45.928,34.757 46.212,32.8C46.321,32.074 46.431,30.953 44.903,30.359C43.374,29.765 42.96,30.051 42.85,29.435C42.741,28.842 43.134,28.732 43.833,28.908C44.531,29.084 45.033,29.413 45.426,29.699C45.819,29.985 46.409,29.238 45.667,27.324C45.47,26.753 45.383,26.775 45.252,26.775Z" style="fill:white;"/>
    </g>
    <g transform="matrix(1,0,0,1,0.0124513,3)">
        <path d="M35.341,27.126C34.009,27.126 33.704,27.368 33.856,27.72C34.009,28.094 34.315,28.182 34.38,28.556C34.424,28.93 34.402,29.985 34.38,31.525C34.359,33.064 34.468,33.152 34.228,33.57C33.987,33.987 33.616,34.603 34.097,34.647C34.577,34.669 37.873,34.757 38.091,34.669C38.331,34.581 38.659,34.427 38.986,33.438C39.292,32.448 39.183,32.14 38.746,32.162C38.31,32.184 38.135,32.58 37.939,32.756C37.742,32.932 37.458,33.13 36.825,33.064C36.192,33.02 36.127,32.778 36.236,32.162C36.345,31.568 36.542,31.634 37.065,31.59C37.589,31.546 37.742,31.327 37.742,30.887C37.742,30.447 37.698,30.051 36.803,30.051C36.389,30.051 36.17,30.029 36.192,29.325C36.214,28.622 36.323,28.622 37,28.644C37.677,28.666 37.96,28.688 38.419,29.084C38.877,29.479 39.052,29.479 39.248,29.347C39.445,29.215 39.401,28.622 38.943,27.962C38.484,27.302 38.637,27.17 37.175,27.148C35.712,27.126 36.651,27.126 35.341,27.126Z" style="fill:white;"/>
    </g>
</svg>
