<?xml version="1.0" encoding="UTF-8" standalone="no"?>
<svg
   xmlns:dc="http://purl.org/dc/elements/1.1/"
   xmlns:cc="http://creativecommons.org/ns#"
   xmlns:rdf="http://www.w3.org/1999/02/22-rdf-syntax-ns#"
   xmlns:svg="http://www.w3.org/2000/svg"
   xmlns="http://www.w3.org/2000/svg"
   xmlns:sodipodi="http://sodipodi.sourceforge.net/DTD/sodipodi-0.dtd"
   xmlns:inkscape="http://www.inkscape.org/namespaces/inkscape"
   width="800"
   height="600"
   viewBox="0 0 800 600"
   version="1.1"
   id="svg869"
   sodipodi:docname="omg-ubuntu.svg"
   style="fill:none; background: linear-gradient(90deg, #833ab4 0%, #fd1d1d 50%, #fcb045 100%);"
   inkscape:version="0.92.4 (5da689c313, 2019-01-14)">
  <metadata
     id="metadata875">
    <rdf:RDF>
      <cc:Work
         rdf:about="">
        <dc:format>image/svg+xml</dc:format>
        <dc:type
           rdf:resource="http://purl.org/dc/dcmitype/StillImage" />
        <dc:title></dc:title>
      </cc:Work>
    </rdf:RDF>
  </metadata>
  <defs
     id="defs873" />
  <sodipodi:namedview
     pagecolor="#ffffff"
     bordercolor="#666666"
     borderopacity="1"
     objecttolerance="10"
     gridtolerance="10"
     guidetolerance="10"
     inkscape:pageopacity="0"
     inkscape:pageshadow="2"
     inkscape:window-width="3840"
     inkscape:window-height="2160"
     id="namedview871"
     showgrid="false"
     inkscape:pagecheckerboard="false"
     inkscape:zoom="1"
     inkscape:cx="134"
     inkscape:cy="21"
     inkscape:window-x="0"
     inkscape:window-y="0"
     inkscape:window-maximized="1"
     inkscape:current-layer="svg869" />
  <path
     d="m 106.65551,329.73331 c -6.06067,0 -11.515418,-1.24772 -16.364029,-3.74341 -4.777291,-2.56691 -8.520697,-6.0964 -11.230218,-10.58849 -2.709514,-4.49209 -4.064269,-9.59017 -4.064269,-15.29449 0,-5.70432 1.354755,-10.8024 4.064269,-15.29449 2.709521,-4.49208 6.452927,-7.98585 11.230218,-10.48153 4.848611,-2.56691 10.303359,-3.85036 16.364029,-3.85036 6.06068,0 11.47986,1.28345 16.25708,3.85036 4.77722,2.49568 8.52063,5.98945 11.23022,10.48153 2.70959,4.49209 4.06427,9.59017 4.06427,15.29449 0,5.70432 -1.35468,10.8024 -4.06427,15.29449 -2.70959,4.49209 -6.453,8.02158 -11.23022,10.58849 -4.77722,2.49569 -10.1964,3.74341 -16.25708,3.74341 z m 0,-13.69017 c 4.27818,0 7.77195,-1.42614 10.48154,-4.27818 2.78082,-2.92351 4.17123,-6.80936 4.17123,-11.65804 0,-4.84868 -1.39041,-8.69904 -4.17123,-11.55108 -2.70959,-2.9235 -6.20336,-4.38513 -10.48154,-4.38513 -4.27817,0 -7.807672,1.46163 -10.588488,4.38513 -2.780816,2.85204 -4.171224,6.7024 -4.171224,11.55108 0,4.84868 1.390408,8.73453 4.171224,11.65804 2.780816,2.85204 6.310318,4.27818 10.588488,4.27818 z m 106.76973,-45.5626 c 7.20168,0 12.906,2.13908 17.11271,6.41726 4.27818,4.20696 6.41727,10.55276 6.41727,19.0379 v 32.94197 h -16.6849 V 298.5026 c 0,-4.5633 -0.96259,-7.95036 -2.88777,-10.16067 -1.85371,-2.28178 -4.52758,-3.42254 -8.02158,-3.42254 -3.92159,0 -7.02327,1.28345 -9.30504,3.85036 -2.28154,2.49568 -3.42255,6.23909 -3.42255,11.23022 v 28.8777 H 179.94849 V 298.5026 c 0,-9.05539 -3.63645,-13.58321 -10.90936,-13.58321 -3.85036,0 -6.9163,1.28345 -9.19808,3.85036 -2.28153,2.49568 -3.42254,6.23909 -3.42254,11.23022 v 28.8777 h -16.6849 v -57.5415 h 15.93622 v 6.63118 c 2.13909,-2.42422 4.74173,-4.27818 7.80767,-5.56163 3.13741,-1.28346 6.55996,-1.92518 10.26763,-1.92518 4.06427,0 7.73645,0.81997 11.01631,2.45995 3.2801,1.56858 5.91823,3.88609 7.91463,6.95204 2.353,-2.99473 5.31223,-5.31199 8.87722,-6.95204 3.63645,-1.63998 7.59377,-2.45995 11.87195,-2.45995 z m 88.84585,0.85563 v 47.9156 c 0,10.55276 -2.74508,18.39617 -8.23549,23.52998 -5.49041,5.13382 -13.512,7.70072 -24.06476,7.70072 -5.56163,0 -10.83813,-0.67746 -15.82926,-2.03213 -4.99112,-1.35468 -9.12686,-3.31559 -12.40671,-5.8825 l 6.63117,-11.9789 c 2.42422,1.9964 5.49017,3.56523 9.19809,4.706 3.70767,1.21223 7.41559,1.81822 11.12326,1.81822 5.77554,0 10.01799,-1.31918 12.72758,-3.95731 2.78082,-2.56691 4.17122,-6.48849 4.17122,-11.76499 v -2.45995 c -4.3494,4.77721 -10.41031,7.16595 -18.18225,7.16595 -5.2765,0 -10.12495,-1.14077 -14.54581,-3.42255 -4.34964,-2.353 -7.80768,-5.63285 -10.37458,-9.83981 -2.56691,-4.20695 -3.85036,-9.05539 -3.85036,-14.5458 0,-5.49041 1.28345,-10.33885 3.85036,-14.54581 2.5669,-4.20696 6.02494,-7.45108 10.37458,-9.73286 4.42086,-2.353 9.26931,-3.52949 14.54581,-3.52949 8.34244,0 14.68849,2.74508 19.03789,8.23549 v -7.37986 z m -31.55157,41.07051 c 4.42087,0 8.02159,-1.28345 10.80241,-3.85036 2.85203,-2.63813 4.27817,-6.06067 4.27817,-10.26762 0,-4.20696 -1.42614,-7.59377 -4.27817,-10.16068 -2.78082,-2.63813 -6.38154,-3.95731 -10.80241,-3.95731 -4.42086,0 -8.05731,1.31918 -10.90935,3.95731 -2.85204,2.56691 -4.27818,5.95372 -4.27818,10.16068 0,4.20695 1.42614,7.62949 4.27818,10.26762 2.85204,2.56691 6.48849,3.85036 10.90935,3.85036 z m 35.31588,-58.39713 h 19.89377 l -3.31558,48.87819 h -13.2626 z m 9.94677,75.72376 c -2.92351,0 -5.38346,-0.92686 -7.37986,-2.78082 -1.92518,-1.92518 -2.88777,-4.24245 -2.88777,-6.95204 0,-2.70959 0.96259,-4.95564 2.88777,-6.73813 1.92518,-1.85396 4.38513,-2.78082 7.37986,-2.78082 2.99496,0 5.45492,0.92686 7.3801,2.78082 1.92518,1.78249 2.88777,4.02854 2.88777,6.73813 0,2.70959 -0.99905,5.02686 -2.99473,6.95204 -1.92518,1.85396 -4.34867,2.78082 -7.27314,2.78082 z"
     id="path865"
     inkscape:connector-curvature="0"
     style="fill:#f15d22;stroke-width:2.43078327" />
  <path
     d="m 408.09937,271.33617 v 57.5415 h -15.82926 v -6.84508 c -2.21201,2.49568 -4.84941,4.42086 -7.91463,5.77554 -3.06765,1.28345 -6.38324,1.92518 -9.94677,1.92518 -7.55973,0 -13.54918,-2.17482 -17.96835,-6.52423 -4.42159,-4.3494 -6.63117,-10.8024 -6.63117,-19.35875 v -32.51416 h 16.68489 v 30.0542 c 0,9.26931 3.8844,13.90408 11.65804,13.90408 3.99135,0 7.19998,-1.28345 9.6259,-3.85036 2.42349,-2.63812 3.63645,-6.52422 3.63645,-11.65803 v -28.44989 z m 39.84297,-0.85563 c 5.34772,0 10.1947,1.24779 14.5458,3.7434 4.41917,2.42422 7.87817,5.8825 10.37459,10.37458 2.49398,4.42087 3.7434,9.59017 3.7434,15.5084 0,5.91823 -1.24942,11.12327 -3.7434,15.61535 -2.49642,4.42087 -5.95542,7.8789 -10.37459,10.37459 -4.3511,2.42422 -9.19808,3.63645 -14.5458,3.63645 -7.91463,0 -13.94054,-2.49569 -18.07531,-7.48682 v 6.63118 h -15.93621 v -79.36021 h 16.68489 v 27.91512 c 4.20526,-4.63471 9.9808,-6.95204 17.32663,-6.95204 z m -2.88777,45.5626 c 4.27817,0 7.77121,-1.42614 10.48153,-4.27818 2.78082,-2.92351 4.17123,-6.80936 4.17123,-11.65804 0,-4.84868 -1.39041,-8.69904 -4.17123,-11.55108 -2.71032,-2.9235 -6.20336,-4.38513 -10.48153,-4.38513 -4.27818,0 -7.80768,1.46163 -10.5885,4.38513 -2.71032,2.85204 -4.06426,6.7024 -4.06426,11.55108 0,4.84868 1.35394,8.73453 4.06426,11.65804 2.78082,2.85204 6.31032,4.27818 10.5885,4.27818 z m 91.062,-44.70697 v 57.5415 h -15.82926 v -6.84508 c -2.20959,2.49568 -4.84699,4.42086 -7.91463,5.77554 -3.06522,1.28345 -6.38081,1.92518 -9.94677,1.92518 -7.5573,0 -13.54675,-2.17482 -17.96835,-6.52423 -4.41916,-4.3494 -6.63117,-10.8024 -6.63117,-19.35875 v -32.51416 h 16.68489 v 30.0542 c 0,9.26931 3.88682,13.90408 11.65804,13.90408 3.99377,0 7.20241,-1.28345 9.6259,-3.85036 2.42592,-2.63812 3.63888,-6.52422 3.63888,-11.65803 v -28.44989 z m 40.80798,-0.85563 c 7.12949,0 12.86857,2.13908 17.21967,6.41726 4.41917,4.27818 6.63118,10.62423 6.63118,19.0379 v 32.94197 H 584.0905 V 298.5026 c 0,-4.5633 -0.99905,-7.95036 -2.99472,-10.16067 -1.9981,-2.28178 -4.88588,-3.42254 -8.66331,-3.42254 -4.20769,0 -7.55974,1.31918 -10.05372,3.95731 -2.49642,2.56691 -3.74341,6.41727 -3.74341,11.55108 v 28.44989 h -16.68489 v -57.5415 h 15.93621 v 6.73813 c 2.20958,-2.42422 4.95394,-4.27818 8.23549,-5.56163 3.27913,-1.35475 6.87912,-2.03213 10.8024,-2.03213 z m 66.46005,55.61632 c -1.63835,1.21223 -3.67048,2.13908 -6.09641,2.78081 -2.35299,0.57051 -4.84698,0.85564 -7.48681,0.85564 -6.84508,0 -12.15634,-1.74701 -15.93621,-5.24077 -3.70695,-3.49377 -5.56163,-8.62758 -5.56163,-15.40144 v -23.63694 h -8.87722 v -12.83454 h 8.87722 v -14.01103 h 16.68489 v 14.01103 h 14.3319 v 12.83454 h -14.3319 v 23.42303 c 0,2.42422 0.6077,4.31391 1.81823,5.66858 1.28345,1.28346 3.06765,1.92518 5.34772,1.92518 2.63983,0 4.88587,-0.71294 6.73813,-2.13909 z m 57.70922,-54.76069 v 57.5415 h -15.82926 v -6.84508 c -2.20958,2.49568 -4.84698,4.42086 -7.91463,5.77554 -3.06522,1.28345 -6.3808,1.92518 -9.94676,1.92518 -7.55731,0 -13.54676,-2.17482 -17.96835,-6.52423 -4.41917,-4.3494 -6.63118,-10.8024 -6.63118,-19.35875 v -32.51416 h 16.6849 v 30.0542 c 0,9.26931 3.88682,13.90408 11.65803,13.90408 3.99378,0 7.20241,-1.28345 9.6259,-3.85036 2.42593,-2.63812 3.63646,-6.52422 3.63646,-11.65803 v -28.44989 z m 3.69479,-17.32662 h 19.89353 l -3.31559,48.87819 H 708.1042 Z m 9.94677,75.72376 c -2.92423,0 -5.38419,-0.92686 -7.37986,-2.78082 -1.92518,-1.92518 -2.88777,-4.24245 -2.88777,-6.95204 0,-2.70959 0.96259,-4.95564 2.88777,-6.73813 1.92518,-1.85396 4.38513,-2.78082 7.37986,-2.78082 2.99472,0 5.45468,0.92686 7.37986,2.78082 1.92518,1.78249 2.88777,4.02854 2.88777,6.73813 0,2.70959 -0.99906,5.02686 -2.99473,6.95204 -1.92518,1.85396 -4.3511,2.78082 -7.2729,2.78082 z"
     id="path867"
     inkscape:connector-curvature="0"
     style="fill:#ffffff;fill-opacity:1;stroke-width:2.43078327" />
</svg>
